<?xml version="1.0" encoding="UTF-8"?>
<svg version="1.1" xmlns="http://www.w3.org/2000/svg" width="450" height="450">
<path d="M0 0 C0 16.5 0 33 0 50 C-7.26 51.32 -14.52 52.64 -22 54 C-38.26398389 58.9250092 -52.11657391 65.8542229 -65 77 C-66.5159375 78.1446875 -66.5159375 78.1446875 -68.0625 79.3125 C-89.33559216 98.77511623 -100.49956495 127.29640858 -102.21875 155.6015625 C-102.98784206 185.53206199 -92.17423044 212.75346423 -72.41015625 234.90234375 C-53.61608419 254.57954401 -27.94257307 266.50178845 -0.75390625 268.203125 C29.23554539 268.64360654 56.30836915 256.17616947 77.75 235.6875 C97.44090776 215.28211808 107.99208325 187.19889838 108.25 159 C108.11910133 152.97211633 107.69720203 146.98846742 107 141 C112.95782348 139.42589393 118.89578956 138.25962346 124.9765625 137.2734375 C125.90544281 137.12089508 126.83432312 136.96835266 127.79135132 136.81118774 C129.74245717 136.49187785 131.69384844 136.17430755 133.64550781 135.85839844 C136.62406479 135.37515173 139.60109794 134.88319836 142.578125 134.390625 C144.48168482 134.08020128 146.38532796 133.7702879 148.2890625 133.4609375 C149.17357086 133.31409515 150.05807922 133.16725281 150.96939087 133.01596069 C155.36403443 132.31202231 159.53113502 131.82948832 164 132 C170.82059911 173.95886415 161.5506334 216.54236483 137.0625 251.375 C132.61770359 257.49563186 127.6786601 263.09771449 122.42089844 268.52783203 C120.98663861 270.0138435 119.57542224 271.51960083 118.1640625 273.02734375 C100.21904333 291.90327216 76.85612471 304.58585235 52.125 312.25 C51.38411133 312.48420654 50.64322266 312.71841309 49.87988281 312.9597168 C34.51744744 317.48887454 19.16948483 318.55267341 3.25 318.4375 C2.32801819 318.43379395 1.40603638 318.43008789 0.45611572 318.42626953 C-13.36713112 318.34725389 -26.63329734 317.82533075 -40 314 C-41.4228833 313.60530518 -41.4228833 313.60530518 -42.87451172 313.20263672 C-67.16486106 306.28100355 -89.12129922 294.85200312 -107.40234375 277.32421875 C-110.44886026 274.59838819 -113.64130791 272.32841844 -117 270 C-117.11275269 271.49781006 -117.11275269 271.49781006 -117.2277832 273.02587891 C-117.51152099 276.75057194 -117.81179841 280.47378207 -118.11694336 284.19677734 C-118.2464208 285.80449594 -118.37148399 287.41257667 -118.49194336 289.02099609 C-118.66645418 291.34062557 -118.8571032 293.65846413 -119.05078125 295.9765625 C-119.10091873 296.68930328 -119.15105621 297.40204407 -119.20271301 298.13638306 C-119.73246324 304.15894283 -121.44109499 308.24123537 -125.4375 312.75 C-135.2608623 320.29898778 -154.96369879 318.1559266 -166.74609375 318.16796875 C-167.91850113 318.17129715 -169.09090851 318.17462555 -170.29884338 318.17805481 C-172.76522433 318.18308187 -175.23161198 318.18546445 -177.69799805 318.18530273 C-181.39709207 318.18747626 -185.09588089 318.20564246 -188.79492188 318.22460938 C-200.02968291 318.25252778 -211.20962967 318.11395939 -222.41015625 317.17578125 C-223.29916122 317.10642868 -224.1881662 317.03707611 -225.10411072 316.96562195 C-231.35737601 316.36133098 -235.75834191 314.78313712 -240.75 310.8125 C-245.53502982 304.83121272 -245.48260843 296.57481429 -246.0625 289.1875 C-246.14048828 288.28580078 -246.21847656 287.38410156 -246.29882812 286.45507812 C-246.56009001 283.30482116 -246.78571459 280.15381334 -247 277 C-247.04450287 276.35439117 -247.08900574 275.70878235 -247.13485718 275.04360962 C-248.1194099 260.30594458 -248.19862491 245.57847091 -248.1875 230.8125 C-248.18756042 229.58031738 -248.18762085 228.34813477 -248.18768311 227.07861328 C-248.17435483 207.97268217 -247.7524453 189.03280773 -246 170 C-245.92523438 169.09475586 -245.85046875 168.18951172 -245.7734375 167.25683594 C-244.66574403 154.05169382 -244.66574403 154.05169382 -240 148 C-234.20144277 143.5302788 -229.62237913 142.82902908 -222.4765625 142.44140625 C-221.70196686 142.39915421 -220.92737122 142.35690216 -220.12930298 142.31336975 C-208.22076564 141.7408619 -196.29353368 141.89493381 -184.375 141.9375 C-181.90364675 141.94252835 -179.4322925 141.94708888 -176.9609375 141.95117188 C-170.97393614 141.96206404 -164.9869729 141.97869491 -159 142 C-158.9087812 140.89394661 -158.9087812 140.89394661 -158.8157196 139.76554871 C-158.7317543 138.78870621 -158.647789 137.81186371 -158.5612793 136.80541992 C-158.439123 135.35905403 -158.439123 135.35905403 -158.3144989 133.88346863 C-157.84644784 129.59216408 -156.894077 125.48537793 -155.8125 121.3125 C-155.59037842 120.45019775 -155.36825684 119.58789551 -155.1394043 118.69946289 C-144.37560857 78.14148057 -117.84483081 43.52241007 -81.8359375 22.05859375 C-56.70020037 7.56543468 -29.03178082 0 0 0 Z " fill="#E7E7E8" transform="translate(255,78)"/>
<path d="M0 0 C0 0.33 0 0.66 0 1 C-0.57741943 1.08975098 -1.15483887 1.17950195 -1.74975586 1.27197266 C-25.78125383 5.09435413 -46.33726255 11.85439477 -65 28 C-66.010625 28.763125 -67.02125 29.52625 -68.0625 30.3125 C-89.33559216 49.77511623 -100.49956495 78.29640858 -102.21875 106.6015625 C-102.98784206 136.53206199 -92.17423044 163.75346423 -72.41015625 185.90234375 C-53.61608419 205.57954401 -27.94257307 217.50178845 -0.75390625 219.203125 C29.23554539 219.64360654 56.30836915 207.17616947 77.75 186.6875 C97.44090776 166.28211808 107.99208325 138.19889838 108.25 110 C108.11910133 103.97211633 107.69720203 97.98846742 107 92 C112.95782348 90.42589393 118.89578956 89.25962346 124.9765625 88.2734375 C125.90544281 88.12089508 126.83432312 87.96835266 127.79135132 87.81118774 C129.74245717 87.49187785 131.69384844 87.17430755 133.64550781 86.85839844 C136.62406479 86.37515173 139.60109794 85.88319836 142.578125 85.390625 C144.48168482 85.08020128 146.38532796 84.7702879 148.2890625 84.4609375 C149.61582504 84.24067398 149.61582504 84.24067398 150.96939087 84.01596069 C155.36403443 83.31202231 159.53113502 82.82948832 164 83 C170.82059911 124.95886415 161.5506334 167.54236483 137.0625 202.375 C132.61770359 208.49563186 127.6786601 214.09771449 122.42089844 219.52783203 C120.98663861 221.0138435 119.57542224 222.51960083 118.1640625 224.02734375 C100.21904333 242.90327216 76.85612471 255.58585235 52.125 263.25 C51.01366699 263.60130981 51.01366699 263.60130981 49.87988281 263.9597168 C34.51744744 268.48887454 19.16948483 269.55267341 3.25 269.4375 C2.32801819 269.43379395 1.40603638 269.43008789 0.45611572 269.42626953 C-13.36713112 269.34725389 -26.63329734 268.82533075 -40 265 C-40.94858887 264.73687012 -41.89717773 264.47374023 -42.87451172 264.20263672 C-67.41157916 257.21070023 -89.25410925 245.59730578 -107.79296875 228.03125 C-110.02620654 225.87035821 -110.02620654 225.87035821 -113 224 C-111.67005617 221.04734888 -110.22220684 218.97649784 -107.92724609 216.70019531 C-106.99650772 215.76968353 -106.99650772 215.76968353 -106.04696655 214.82037354 C-105.37920197 214.16293152 -104.71143738 213.5054895 -104.0234375 212.828125 C-102.99556625 211.8044986 -102.99556625 211.8044986 -101.94692993 210.76019287 C-99.76094155 208.58538402 -97.56809571 206.41763928 -95.375 204.25 C-93.89016745 202.7752001 -92.40578694 201.29994494 -90.921875 199.82421875 C-87.2864709 196.21084552 -83.64490176 192.60379147 -80 189 C-80.96118079 187.71327806 -81.92306743 186.42708337 -82.88525391 185.14111328 C-83.68861679 184.06665451 -83.68861679 184.06665451 -84.50820923 182.9704895 C-86.07992808 180.89442391 -87.71894083 178.88412762 -89.375 176.875 C-97.98908382 165.73740705 -103.53767626 153.26249916 -108 140 C-108.54527344 138.37964844 -108.54527344 138.37964844 -109.1015625 136.7265625 C-116.53667428 109.14021317 -109.90694321 77.39547661 -96 53 C-79.40766999 26.7259362 -53.88350261 8.69685355 -23.6953125 1.59375 C-15.76375025 -0.1534927 -8.09283006 -0.10102007 0 0 Z " fill="#6BD241" transform="translate(255,127)"/>
<path d="M0 0 C0 16.17 0 32.34 0 49 C-6.93 49.66 -13.86 50.32 -21 51 C-50.97169633 57.8853897 -76.84882392 73.97516765 -93.58349609 100.23583984 C-108.38444389 124.29291219 -114.99184035 153.80271221 -108.87231445 181.86035156 C-108.0559041 184.96247045 -107.06431942 187.97457351 -106 191 C-105.77505859 191.66918457 -105.55011719 192.33836914 -105.31835938 193.02783203 C-99.63038474 209.88413703 -90.98054496 223.81694681 -79 237 C-83.02748053 241.83298806 -87.24379413 246.38110004 -91.7109375 250.80859375 C-92.32393707 251.42017838 -92.93693665 252.031763 -93.56851196 252.66188049 C-95.50164564 254.58947559 -97.43824987 256.51353928 -99.375 258.4375 C-100.69684699 259.75432404 -102.01846372 261.07137926 -103.33984375 262.38867188 C-106.55724299 265.59512373 -109.77775681 268.79841629 -113 272 C-115.4689055 270.38386952 -116.54748177 269.5175197 -118 267 C-118.71431405 262.31410987 -118.53107483 257.63523355 -118.41796875 252.91015625 C-118.40351273 251.48703813 -118.39162685 250.06389185 -118.38215637 248.64073181 C-118.35171924 244.87555239 -118.29322259 241.11137645 -118.22674561 237.34667969 C-118.11257282 230.70157502 -118.04032316 224.05594636 -117.98046875 217.41015625 C-117.9732354 216.68451603 -117.96600204 215.95887581 -117.9585495 215.21124649 C-115.84387446 179.61258873 -115.84387446 179.61258873 -126 148 C-130.22460151 145.4880646 -133.6105107 144.57173029 -138.4921875 144.26953125 C-139.69101563 144.18896484 -140.88984375 144.10839844 -142.125 144.02539062 C-143.98125 143.92000977 -143.98125 143.92000977 -145.875 143.8125 C-147.76605469 143.6897168 -147.76605469 143.6897168 -149.6953125 143.56445312 C-152.79633855 143.36476584 -155.89761096 143.17701605 -159 143 C-158.53691255 135.54915406 -157.70471355 128.47394626 -155.8125 121.25 C-155.59037842 120.39220947 -155.36825684 119.53441895 -155.1394043 118.65063477 C-144.32538927 78.11406436 -117.84555513 43.52284181 -81.8359375 22.05859375 C-56.70020037 7.56543468 -29.03178082 0 0 0 Z " fill="#2895E7" transform="translate(255,78)"/>
<path d="M0 0 C22.08935957 -0.4963901 42.1911146 1.36763912 63 9 C63.67836914 9.24588867 64.35673828 9.49177734 65.05566406 9.74511719 C103.11036857 23.79310213 135.64100728 53.9217156 152.94433594 90.62060547 C158.53012737 103.21059698 165 118.02952576 165 132 C159.11373931 133.54892673 153.24458068 134.72828753 147.2421875 135.7265625 C146.33550323 135.87910492 145.42881897 136.03164734 144.49465942 136.18881226 C142.5906275 136.50805396 140.68631494 136.82562599 138.78173828 137.14160156 C135.87559383 137.62490124 132.97100048 138.11685472 130.06640625 138.609375 C128.20842109 138.91979655 126.35035093 139.22970986 124.4921875 139.5390625 C123.62955292 139.68590485 122.76691833 139.83274719 121.87814331 139.98403931 C117.5323128 140.69726764 113.42284411 141.16779709 109 141 C108.47212891 139.1128125 108.47212891 139.1128125 107.93359375 137.1875 C98.94354981 105.72543559 83.30141413 79.60141871 54.05859375 63.10546875 C36.76319841 53.84417309 19.54317951 51.17146439 0 49 C0 32.83 0 16.66 0 0 Z " fill="#FE3E36" transform="translate(278,54)"/>
<path d="M0 0 C5.61 0 11.22 0 17 0 C17 4.95 17 9.9 17 15 C19.31 15 21.62 15 24 15 C34.53385359 17.14056918 44.11874076 22.54219789 50.5 31.3125 C53.8723243 36.91679616 56 43.43676072 56 50 C45.11 50 34.22 50 23 50 C22.01 47.36 21.02 44.72 20 42 C19.34 41.34 18.68 40.68 18 40 C18 49.24 18 58.48 18 68 C20.59875 68.721875 23.1975 69.44375 25.875 70.1875 C36.802223 73.35988606 47.03609747 76.91852454 53.28125 87.0859375 C58.06079485 96.26949153 58.67635122 106.8281377 55.5625 116.75 C51.03505044 127.53645001 42.11806161 134.55637064 31.578125 139.02734375 C26.94325167 140.71487313 24.1835623 141 19 141 C19 145.95 19 150.9 19 156 C12.73 156 6.46 156 0 156 C0 151.05 0 146.1 0 141 C-1.60875 140.9175 -3.2175 140.835 -4.875 140.75 C-15.75161313 139.71811619 -24.40248699 135.09860042 -31.7890625 127.05078125 C-37.6214157 119.73879164 -39 114.42842326 -39 105 C-28.44 105 -17.88 105 -7 105 C-6.01 107.97 -5.02 110.94 -4 114 C-3.01 114.99 -2.02 115.98 -1 117 C-0.67 107.1 -0.34 97.2 0 87 C-2.64 86.67 -5.28 86.34 -8 86 C-18.95224574 83.42526999 -29.18515422 78.43525783 -35.45703125 68.75 C-39.9855766 60.0449517 -40.6889316 48.56591099 -37.9375 39.0625 C-33.59010538 28.46698939 -25.27119232 22.16780384 -15.0625 17.6875 C-10.05045133 15.79126181 -5.33317189 15.30475268 0 15 C0 10.05 0 5.1 0 0 Z M-3.4375 39.1875 C-6.45533402 42.49975685 -7.92354541 44.57593961 -8.06640625 49.10546875 C-7.74279279 54.95993047 -6.2402679 57.96657443 -2 62 C-1.34 62 -0.68 62 0 62 C0 53.75 0 45.5 0 37 C-1.42181681 36.88868171 -1.42181681 36.88868171 -3.4375 39.1875 Z M17 93 C17 101.58 17 110.16 17 119 C17.33 119 17.66 119 18 119 C18 111.08 18 103.16 18 95 C18.66 94.67 19.32 94.34 20 94 C19.01 93.67 18.02 93.34 17 93 Z M20 95 C18.78356708 95.99483202 18.78356708 95.99483202 18.88647461 97.94946289 C18.89171143 98.7821167 18.89694824 99.61477051 18.90234375 100.47265625 C18.90556641 101.37177734 18.90878906 102.27089844 18.91210938 103.19726562 C18.92048828 104.14279297 18.92886719 105.08832031 18.9375 106.0625 C18.94201172 107.01189453 18.94652344 107.96128906 18.95117188 108.93945312 C18.9629989 111.29303065 18.97947975 113.64648477 19 116 C19.99 116 20.98 116 22 116 C24.93613427 112.725081 25.92376875 110.02912192 26.25 105.625 C25.98284578 101.7512638 25.34494559 100.03974428 23 97 C22.01 96.34 21.02 95.68 20 95 Z " fill="#F57302" transform="translate(249,156)"/>
<path d="M0 0 C0.79365129 4.93365913 1.18234262 9.74971029 1.23828125 14.75 C1.24816574 15.47685501 1.25805023 16.20371002 1.26823425 16.95259094 C1.68610067 55.71981879 -6.31318169 93.50782452 -32 124 C-32.95511839 125.19893553 -33.90812698 126.39955388 -34.859375 127.6015625 C-35.84202661 128.81910126 -36.82637509 130.03527267 -37.8125 131.25 C-38.49711304 132.11165771 -38.49711304 132.11165771 -39.19555664 132.99072266 C-40.51953125 134.578125 -40.51953125 134.578125 -43 137 C-47 137 -47 137 -48.69586182 135.78515625 C-49.25545593 135.21667969 -49.81505005 134.64820313 -50.39160156 134.0625 C-51.0319635 133.42183594 -51.67232544 132.78117188 -52.33209229 132.12109375 C-53.01140808 131.42113281 -53.69072388 130.72117187 -54.390625 130 C-55.44754547 128.93458984 -55.44754547 128.93458984 -56.52581787 127.84765625 C-58.77675647 125.57430627 -61.01340194 123.28745164 -63.25 121 C-64.77251704 119.4574243 -66.29594368 117.9157458 -67.8203125 116.375 C-71.55749658 112.59368535 -75.28303484 108.80118556 -79 105 C-77.59181235 102.07051726 -76.18716712 99.97571599 -73.9375 97.625 C-54.8516685 76.11872001 -46.917043 47.34253172 -48 19 C-48.25002186 15.32171235 -48.57366183 11.66194032 -49 8 C-43.53025531 6.57224001 -38.09493793 5.41511256 -32.51953125 4.4921875 C-31.74365158 4.36184113 -30.96777191 4.23149475 -30.16838074 4.09719849 C-28.54261816 3.82506297 -26.91658089 3.55456372 -25.2902832 3.28564453 C-22.80781869 2.87422416 -20.32675648 2.4549929 -17.84570312 2.03515625 C-16.25789096 1.77036245 -14.67000283 1.50602363 -13.08203125 1.2421875 C-12.34547806 1.11721893 -11.60892487 0.99225037 -10.85005188 0.86349487 C-7.19647389 0.26555334 -3.70382699 -0.144146 0 0 Z " fill="#FEB802" transform="translate(411,211)"/>
<path d="M0 0 C1.34111343 0.00539291 1.34111343 0.00539291 2.70932007 0.01089478 C3.64580887 0.01074875 4.58229767 0.01060272 5.54716492 0.01045227 C8.65845007 0.01115179 11.76967617 0.01894602 14.88095093 0.02676392 C17.0318651 0.02862796 19.18277971 0.03005192 21.33369446 0.03105164 C27.00711225 0.03487792 32.68050463 0.04470914 38.35391235 0.05575562 C44.13831234 0.06596736 49.92271641 0.07054875 55.7071228 0.07559204 C67.06585975 0.08633132 78.42457113 0.103929 89.78329468 0.12442017 C89.78329468 9.36442017 89.78329468 18.60442017 89.78329468 28.12442017 C77.28372046 28.14696942 64.78415965 28.16533423 52.28456974 28.17623234 C46.48115855 28.18146161 40.67776193 28.18856004 34.87435913 28.19985962 C29.27878615 28.21068695 23.68322722 28.21669667 18.08764458 28.21929741 C15.94770524 28.22115194 13.80776671 28.22477307 11.66783333 28.23015022 C8.68164502 28.23735861 5.69551561 28.23841119 2.70932007 28.23794556 C1.36820663 28.24333847 1.36820663 28.24333847 0 28.24884033 C-6.10265316 28.23847233 -6.10265316 28.23847233 -7.21670532 27.12442017 C-7.31642318 25.20983735 -7.34751121 23.29159699 -7.34951782 21.37442017 C-7.35080688 20.20910767 -7.35209595 19.04379517 -7.35342407 17.84317017 C-7.34955688 16.61598267 -7.3456897 15.38879517 -7.34170532 14.12442017 C-7.34557251 12.89723267 -7.3494397 11.67004517 -7.35342407 10.40567017 C-7.35213501 9.24035767 -7.35084595 8.07504517 -7.34951782 6.87442017 C-7.34838989 5.79676392 -7.34726196 4.71910767 -7.34609985 3.60879517 C-7.092852 -1.25356359 -4.18608879 0.00711189 0 0 Z " fill="#2896E7" transform="translate(31.216705322265625,238.87557983398438)"/>
<path d="M0 0 C0 0.33 0 0.66 0 1 C-0.57741943 1.08975098 -1.15483887 1.17950195 -1.74975586 1.27197266 C-25.78125383 5.09435413 -46.33726255 11.85439477 -65 28 C-66.010625 28.763125 -67.02125 29.52625 -68.0625 30.3125 C-89.33559216 49.77511623 -100.49956495 78.29640858 -102.21875 106.6015625 C-102.98784206 136.53206199 -92.17423044 163.75346423 -72.41015625 185.90234375 C-54.20913079 204.95863032 -30.12722962 216.15944049 -4 219 C-4 219.33 -4 219.66 -4 220 C-30.30393814 221.76932319 -54.79653469 210.13197633 -74.38037109 193.21679688 C-92.14217879 177.42126105 -102.91452746 157.87584449 -109 135 C-109.17950195 134.372146 -109.35900391 133.74429199 -109.54394531 133.09741211 C-111.3432098 126.15682127 -111.29576035 119.3223007 -111.25 112.1875 C-111.25773438 110.99318359 -111.26546875 109.79886719 -111.2734375 108.56835938 C-111.20839027 78.69542101 -99.00758581 52.5267151 -78.625 31.125 C-57.04162088 10.50019503 -29.77921552 -0.37172391 0 0 Z " fill="#293343" transform="translate(255,127)"/>
<path d="M0 0 C6.82059911 41.95886415 -2.4493666 84.54236483 -26.9375 119.375 C-31.38229641 125.49563186 -36.3213399 131.09771449 -41.57910156 136.52783203 C-43.01336139 138.0138435 -44.42457776 139.51960083 -45.8359375 141.02734375 C-70.40145722 166.86721537 -108.79260353 185.25655773 -144.6796875 186.17578125 C-148.4578237 186.21243846 -152.22447558 186.13888169 -156 186 C-156 185.67 -156 185.34 -156 185 C-155.07703125 184.90203125 -154.1540625 184.8040625 -153.203125 184.703125 C-148.79186896 184.19748696 -144.39590652 183.62403865 -140 183 C-139.23510254 182.89236328 -138.47020508 182.78472656 -137.68212891 182.67382812 C-98.20091813 176.7878106 -62.09819356 153.55218887 -38.34912109 121.83203125 C-26.29895 105.46857053 -17.20921701 86.65407906 -12 67 C-11.79117188 66.23284668 -11.58234375 65.46569336 -11.3671875 64.67529297 C-6.04523588 43.99799518 -7.62506023 22.15958179 -8 1 C-5.29120665 -0.35439668 -2.99066732 -0.06501451 0 0 Z " fill="#2C3540" transform="translate(419,210)"/>
<path d="M0 0 C18.09996568 -1.01495135 36.04873068 2.78254999 53 9 C53.67836914 9.24588867 54.35673828 9.49177734 55.05566406 9.74511719 C93.11036857 23.79310213 125.64100728 53.9217156 142.94433594 90.62060547 C148.53012737 103.21059698 155 118.02952576 155 132 C152.29120665 133.35439668 149.99066732 133.06501451 147 133 C146.86013672 132.40799805 146.72027344 131.81599609 146.57617188 131.20605469 C138.8778603 99.08850076 126.0230081 71.85476417 103 48 C102.21109375 47.14792969 101.4221875 46.29585937 100.609375 45.41796875 C75.35114901 18.86337686 36.19822711 3.18242949 0 1 C0 0.67 0 0.34 0 0 Z " fill="#2D3240" transform="translate(288,54)"/>
<path d="M0 0 C6.27 0 12.54 0 19 0 C19 13.2 19 26.4 19 40 C12.73 40 6.46 40 0 40 C-1.84276509 38.15723491 -1.12874411 35.57036241 -1.13894653 33.11865234 C-1.1369223 32.29574707 -1.13489807 31.4728418 -1.1328125 30.625 C-1.13376923 29.78533691 -1.13472595 28.94567383 -1.13571167 28.08056641 C-1.13639348 26.30175705 -1.13453917 24.52294523 -1.13037109 22.74414062 C-1.12502283 20.01166224 -1.13031605 17.27934824 -1.13671875 14.546875 C-1.13605797 12.8229163 -1.13477681 11.09895771 -1.1328125 9.375 C-1.13483673 8.55209473 -1.13686096 7.72918945 -1.13894653 6.88134766 C-1.11495054 1.11495054 -1.11495054 1.11495054 0 0 Z " fill="#FE3F36" transform="translate(102,339)"/>
<path d="M0 0 C4 1 4 1 5 2 C5.15873955 4.21687994 5.25133837 6.43855298 5.31640625 8.66015625 C5.33718735 9.32462265 5.35796844 9.98908905 5.37937927 10.6736908 C5.44493658 12.80318543 5.50378785 14.93280668 5.5625 17.0625 C5.60567939 18.50326847 5.64929349 19.94402399 5.69335938 21.38476562 C5.80062393 24.9230404 5.90187371 28.46145869 6 32 C7.11117188 32.30292969 8.22234375 32.60585937 9.3671875 32.91796875 C34.40940631 39.89824077 34.40940631 39.89824077 41.28125 51.0859375 C46.06079485 60.26949153 46.67635122 70.8281377 43.5625 80.75 C39.03505044 91.53645001 30.11806161 98.55637064 19.578125 103.02734375 C15.28687925 104.58976041 11.61656012 105.35512001 7 105 C9.19041774 103.84250437 11.33345529 102.87825459 13.6640625 102.02734375 C23.50034123 98.40686649 31.16588377 93.17294516 36.0625 83.6875 C39.88893212 75.23122119 40.64635301 64.96225974 38.1640625 55.97265625 C34.28374267 47.52189259 28.34451707 42.70883973 19.8125 39.3125 C13.283532 36.95933329 6.63992587 35.04305411 0 33 C0 22.11 0 11.22 0 0 Z " fill="#2F343F" transform="translate(261,192)"/>
<path d="M0 0 C0.99 0 1.98 0 3 0 C3 8.91 3 17.82 3 27 C-28.68 27 -60.36 27 -93 27 C-93 26.01 -93 25.02 -93 24 C-92.09512848 23.99857498 -91.19025696 23.99714996 -90.25796509 23.99568176 C-81.69602901 23.97779139 -73.13460578 23.93599964 -64.57291603 23.86790943 C-60.17207764 23.83373827 -55.77158276 23.80854492 -51.37060547 23.80444336 C-47.11681208 23.80013906 -42.86379226 23.77150173 -38.61024094 23.72656822 C-36.99413956 23.71366085 -35.37794528 23.70926138 -33.76179886 23.71384621 C-23.75011122 23.73561658 -14.7874481 23.43121618 -7.07754517 16.19587708 C-2.53173333 11.30908318 -0.91680212 6.57041517 0 0 Z " fill="#1F8BCD" transform="translate(118,240)"/>
<path d="M0 0 C6.6 0 13.2 0 20 0 C20 5.94 20 11.88 20 18 C13.4 18 6.8 18 0 18 C0 12.06 0 6.12 0 0 Z " fill="#2B3442" transform="translate(50,361)"/>
<path d="M0 0 C6.6 0 13.2 0 20 0 C20 5.94 20 11.88 20 18 C13.4 18 6.8 18 0 18 C0 12.06 0 6.12 0 0 Z " fill="#293240" transform="translate(50,296)"/>
<path d="M0 0 C3.14588944 -0.02683697 6.29155271 -0.04675902 9.4375 -0.0625 C10.33533203 -0.07087891 11.23316406 -0.07925781 12.15820312 -0.08789062 C13.01220703 -0.09111328 13.86621094 -0.09433594 14.74609375 -0.09765625 C15.93223267 -0.10551147 15.93223267 -0.10551147 17.14233398 -0.11352539 C19 0 19 0 20 1 C20.07330331 3.86469325 20.09217831 6.69893674 20.0625 9.5625 C20.041875 12.346875 20.02125 15.13125 20 18 C13.4 18 6.8 18 0 18 C0 12.06 0 6.12 0 0 Z " fill="#2C3543" transform="translate(76,361)"/>
<path d="M0 0 C1.18613892 0.00785522 1.18613892 0.00785522 2.39624023 0.01586914 C3.67724609 0.02070313 3.67724609 0.02070313 4.98413086 0.02563477 C5.88196289 0.03401367 6.77979492 0.04239258 7.70483398 0.05102539 C8.6065332 0.05553711 9.50823242 0.06004883 10.43725586 0.06469727 C12.67230988 0.07652295 14.90733 0.09445901 17.14233398 0.11352539 C17.14233398 6.05352539 17.14233398 11.99352539 17.14233398 18.11352539 C10.54233398 18.11352539 3.94233398 18.11352539 -2.85766602 18.11352539 C-2.87829102 15.32915039 -2.89891602 12.54477539 -2.92016602 9.67602539 C-2.92927002 8.79760986 -2.93837402 7.91919434 -2.94775391 7.01416016 C-2.95489692 5.04706565 -2.90798495 3.07998918 -2.85766602 1.11352539 C-1.85766602 0.11352539 -1.85766602 0.11352539 0 0 Z " fill="#283140" transform="translate(26.857666015625,360.886474609375)"/>
<path d="M0 0 C3.14588944 -0.02683697 6.29155271 -0.04675902 9.4375 -0.0625 C10.33533203 -0.07087891 11.23316406 -0.07925781 12.15820312 -0.08789062 C13.01220703 -0.09111328 13.86621094 -0.09433594 14.74609375 -0.09765625 C15.93223267 -0.10551147 15.93223267 -0.10551147 17.14233398 -0.11352539 C19 0 19 0 20 1 C20.07330331 3.86469325 20.09217831 6.69893674 20.0625 9.5625 C20.041875 12.346875 20.02125 15.13125 20 18 C13.4 18 6.8 18 0 18 C0 12.06 0 6.12 0 0 Z " fill="#293241" transform="translate(76,339)"/>
<path d="M0 0 C1.18613892 0.00785522 1.18613892 0.00785522 2.39624023 0.01586914 C3.67724609 0.02070313 3.67724609 0.02070313 4.98413086 0.02563477 C5.88196289 0.03401367 6.77979492 0.04239258 7.70483398 0.05102539 C8.6065332 0.05553711 9.50823242 0.06004883 10.43725586 0.06469727 C12.67230988 0.07652295 14.90733 0.09445901 17.14233398 0.11352539 C17.14233398 6.05352539 17.14233398 11.99352539 17.14233398 18.11352539 C10.54233398 18.11352539 3.94233398 18.11352539 -2.85766602 18.11352539 C-2.87829102 15.32915039 -2.89891602 12.54477539 -2.92016602 9.67602539 C-2.92927002 8.79760986 -2.93837402 7.91919434 -2.94775391 7.01416016 C-2.95489692 5.04706565 -2.90798495 3.07998918 -2.85766602 1.11352539 C-1.85766602 0.11352539 -1.85766602 0.11352539 0 0 Z " fill="#283140" transform="translate(26.857666015625,338.886474609375)"/>
<path d="M0 0 C6.6 0 13.2 0 20 0 C20 5.94 20 11.88 20 18 C16.85411056 18.02683697 13.70844729 18.04675902 10.5625 18.0625 C9.66466797 18.07087891 8.76683594 18.07925781 7.84179688 18.08789062 C6.56079102 18.09272461 6.56079102 18.09272461 5.25390625 18.09765625 C4.46314697 18.10289307 3.6723877 18.10812988 2.85766602 18.11352539 C1 18 1 18 0 17 C-0.07330331 14.13530675 -0.09217831 11.30106326 -0.0625 8.4375 C-0.041875 5.653125 -0.02125 2.86875 0 0 Z " fill="#2E3745" transform="translate(101,318)"/>
<path d="M0 0 C6.6 0 13.2 0 20 0 C20.020625 2.784375 20.04125 5.56875 20.0625 8.4375 C20.071604 9.31591553 20.08070801 10.19433105 20.09008789 11.09936523 C20.09723091 13.06645974 20.05031893 15.03353621 20 17 C19 18 19 18 17.14233398 18.11352539 C16.35157471 18.10828857 15.56081543 18.10305176 14.74609375 18.09765625 C13.89208984 18.09443359 13.03808594 18.09121094 12.15820312 18.08789062 C11.26037109 18.07951172 10.36253906 18.07113281 9.4375 18.0625 C8.53580078 18.05798828 7.63410156 18.05347656 6.70507812 18.04882812 C4.47002411 18.03700244 2.23500398 18.01906638 0 18 C0 12.06 0 6.12 0 0 Z " fill="#262F3E" transform="translate(76,318)"/>
<path d="M0 0 C6.6 0 13.2 0 20 0 C20 5.94 20 11.88 20 18 C16.85411056 18.02683697 13.70844729 18.04675902 10.5625 18.0625 C9.66466797 18.07087891 8.76683594 18.07925781 7.84179688 18.08789062 C6.56079102 18.09272461 6.56079102 18.09272461 5.25390625 18.09765625 C4.46314697 18.10289307 3.6723877 18.10812988 2.85766602 18.11352539 C1 18 1 18 0 17 C-0.07330331 14.13530675 -0.09217831 11.30106326 -0.0625 8.4375 C-0.041875 5.653125 -0.02125 2.86875 0 0 Z " fill="#2D3544" transform="translate(24,318)"/>
<path d="M0 0 C6.6 0 13.2 0 20 0 C20.020625 2.784375 20.04125 5.56875 20.0625 8.4375 C20.071604 9.31591553 20.08070801 10.19433105 20.09008789 11.09936523 C20.09723091 13.06645974 20.05031893 15.03353621 20 17 C19 18 19 18 17.14233398 18.11352539 C16.35157471 18.10828857 15.56081543 18.10305176 14.74609375 18.09765625 C13.89208984 18.09443359 13.03808594 18.09121094 12.15820312 18.08789062 C11.26037109 18.07951172 10.36253906 18.07113281 9.4375 18.0625 C8.53580078 18.05798828 7.63410156 18.05347656 6.70507812 18.04882812 C4.47002411 18.03700244 2.23500398 18.01906638 0 18 C0 12.06 0 6.12 0 0 Z " fill="#283140" transform="translate(76,296)"/>
<path d="M0 0 C6.6 0 13.2 0 20 0 C20 5.94 20 11.88 20 18 C16.85411056 18.02683697 13.70844729 18.04675902 10.5625 18.0625 C9.66466797 18.07087891 8.76683594 18.07925781 7.84179688 18.08789062 C6.56079102 18.09272461 6.56079102 18.09272461 5.25390625 18.09765625 C4.46314697 18.10289307 3.6723877 18.10812988 2.85766602 18.11352539 C1 18 1 18 0 17 C-0.07330331 14.13530675 -0.09217831 11.30106326 -0.0625 8.4375 C-0.041875 5.653125 -0.02125 2.86875 0 0 Z " fill="#2B3442" transform="translate(24,296)"/>
<path d="M0 0 C0.804375 -0.00128906 1.60875 -0.00257813 2.4375 -0.00390625 C3.283125 -0.00003906 4.12875 0.00382812 5 0.0078125 C6.2684375 0.00201172 6.2684375 0.00201172 7.5625 -0.00390625 C8.366875 -0.00261719 9.17125 -0.00132812 10 0 C10.7425 0.00112793 11.485 0.00225586 12.25 0.00341797 C14 0.1328125 14 0.1328125 15 1.1328125 C15.07330331 3.99750575 15.09217831 6.83174924 15.0625 9.6953125 C15.041875 12.4796875 15.02125 15.2640625 15 18.1328125 C8.4 18.1328125 1.8 18.1328125 -5 18.1328125 C-5.020625 15.3484375 -5.04125 12.5640625 -5.0625 9.6953125 C-5.071604 8.81689697 -5.08070801 7.93848145 -5.09008789 7.03344727 C-5.09723091 5.06635276 -5.05031893 3.09927629 -5 1.1328125 C-3.4779041 -0.3892834 -2.11789918 0.00321729 0 0 Z " fill="#2C3443" transform="translate(55,338.8671875)"/>
<path d="M0 0 C6.6 0 13.2 0 20 0 C20.020625 2.784375 20.04125 5.56875 20.0625 8.4375 C20.071604 9.31591553 20.08070801 10.19433105 20.09008789 11.09936523 C20.09723091 13.06645974 20.05031893 15.03353621 20 17 C18.4779041 18.5220959 17.11789918 18.12959521 15 18.1328125 C14.195625 18.13410156 13.39125 18.13539063 12.5625 18.13671875 C11.716875 18.13285156 10.87125 18.12898438 10 18.125 C9.154375 18.12886719 8.30875 18.13273437 7.4375 18.13671875 C6.633125 18.13542969 5.82875 18.13414062 5 18.1328125 C4.2575 18.13168457 3.515 18.13055664 2.75 18.12939453 C1 18 1 18 0 17 C-0.07330331 14.13530675 -0.09217831 11.30106326 -0.0625 8.4375 C-0.041875 5.653125 -0.02125 2.86875 0 0 Z " fill="#293240" transform="translate(50,318)"/>
<path d="M0 0 C1.18613892 0.00785522 1.18613892 0.00785522 2.39624023 0.01586914 C3.67724609 0.02070313 3.67724609 0.02070313 4.98413086 0.02563477 C5.88196289 0.03401367 6.77979492 0.04239258 7.70483398 0.05102539 C8.6065332 0.05553711 9.50823242 0.06004883 10.43725586 0.06469727 C12.67230988 0.07652295 14.90733 0.09445901 17.14233398 0.11352539 C17.14233398 6.05352539 17.14233398 11.99352539 17.14233398 18.11352539 C13.99644455 18.14036236 10.85078127 18.16028441 7.70483398 18.17602539 C6.80700195 18.1844043 5.90916992 18.1927832 4.98413086 18.20141602 C3.703125 18.20625 3.703125 18.20625 2.39624023 18.21118164 C1.60548096 18.21641846 0.81472168 18.22165527 0 18.22705078 C-1.85766602 18.11352539 -1.85766602 18.11352539 -2.85766602 17.11352539 C-2.95747815 14.43621159 -2.99646477 11.79048365 -2.98266602 9.11352539 C-2.9865332 8.36329102 -2.99040039 7.61305664 -2.99438477 6.84008789 C-2.98236702 0.18225794 -2.98236702 0.18225794 0 0 Z " fill="#2C3543" transform="translate(103.857666015625,295.886474609375)"/>
<path d="M0 0 C6.6 0 13.2 0 20 0 C20 4.29 20 8.58 20 13 C13.4 13 6.8 13 0 13 C0 8.71 0 4.42 0 0 Z " fill="#2B3342" transform="translate(76,276)"/>
<path d="M0 0 C6.6 0 13.2 0 20 0 C20 4.29 20 8.58 20 13 C13.4 13 6.8 13 0 13 C0 8.71 0 4.42 0 0 Z " fill="#293241" transform="translate(50,276)"/>
<path d="M0 0 C6.6 0 13.2 0 20 0 C20 4.29 20 8.58 20 13 C13.4 13 6.8 13 0 13 C0 8.71 0 4.42 0 0 Z " fill="#2A3341" transform="translate(24,276)"/>
<path d="M0 0 C6.6 0 13.2 0 20 0 C20 4.29 20 8.58 20 13 C16.85411056 13.02683697 13.70844729 13.04675902 10.5625 13.0625 C9.21575195 13.07506836 9.21575195 13.07506836 7.84179688 13.08789062 C6.56079102 13.09272461 6.56079102 13.09272461 5.25390625 13.09765625 C4.46314697 13.10289307 3.6723877 13.10812988 2.85766602 13.11352539 C1 13 1 13 0 12 C-0.14355117 7.99779347 -0.04216403 4.00558317 0 0 Z " fill="#2B3342" transform="translate(101,276)"/>
<path d="M0 0 C12.18556689 0.51853476 21.19984768 4.46604446 30 13 C35.10875302 18.97650772 38 27.14154442 38 35 C36.35 35 34.7 35 33 35 C32.79697266 33.89205078 32.79697266 33.89205078 32.58984375 32.76171875 C30.56316419 23.21083964 27.05724945 14.55226589 18.9375 8.625 C13.06504914 5.11784185 6.48108017 3.0835336 0 1 C0 0.67 0 0.34 0 0 Z " fill="#2C3340" transform="translate(267,171)"/>
<path d="M0 0 C0 0.66 0 1.32 0 2 C-1.1446875 2.5878125 -1.1446875 2.5878125 -2.3125 3.1875 C-5.77574048 5.52317381 -7.13255792 8.00823113 -8 12 C-8.19897135 16.64797068 -7.64245348 19.99348955 -5.125 23.9375 C-2.97945156 26.14475369 -2.97945156 26.14475369 0 28 C0 28.66 0 29.32 0 30 C-5.30198602 29.67866751 -8.49256575 26.70630939 -12 23 C-14.42416862 18.99485185 -14.71188044 14.58667271 -14 10 C-11.25560862 4.29166594 -6.61243366 0 0 0 Z " fill="#33353D" transform="translate(250,191)"/>
<path d="M0 0 C2.475 0.495 2.475 0.495 5 1 C5 10.24 5 19.48 5 29 C3.35 29.33 1.7 29.66 0 30 C0 20.1 0 10.2 0 0 Z " fill="#35363D" transform="translate(261,247)"/>
<path d="M0 0 C1.18613892 0.00785522 1.18613892 0.00785522 2.39624023 0.01586914 C3.67724609 0.02070313 3.67724609 0.02070313 4.98413086 0.02563477 C5.88196289 0.03401367 6.77979492 0.04239258 7.70483398 0.05102539 C8.6065332 0.05553711 9.50823242 0.06004883 10.43725586 0.06469727 C12.67234712 0.07652315 14.90730835 0.09300319 17.14233398 0.11352539 C17.14233398 0.77352539 17.14233398 1.43352539 17.14233398 2.11352539 C11.20233398 2.11352539 5.26233398 2.11352539 -0.85766602 2.11352539 C-0.85766602 14.32352539 -0.85766602 26.53352539 -0.85766602 39.11352539 C-1.51766602 39.11352539 -2.17766602 39.11352539 -2.85766602 39.11352539 C-2.88231451 33.72005551 -2.90050132 28.32661814 -2.91259766 22.93310547 C-2.91763833 21.09683664 -2.92447078 19.26057185 -2.93310547 17.42431641 C-2.94518274 14.79076138 -2.95089683 12.15725923 -2.95532227 9.52368164 C-2.96048355 8.69763931 -2.96564484 7.87159698 -2.97096252 7.02052307 C-2.97115806 5.05116172 -2.91970753 3.08190926 -2.85766602 1.11352539 C-1.85766602 0.11352539 -1.85766602 0.11352539 0 0 Z " fill="#EE4D4C" transform="translate(103.857666015625,338.886474609375)"/>
<path d="M0 0 C3.14588944 -0.02683697 6.29155271 -0.04675902 9.4375 -0.0625 C10.33533203 -0.07087891 11.23316406 -0.07925781 12.15820312 -0.08789062 C13.01220703 -0.09111328 13.86621094 -0.09433594 14.74609375 -0.09765625 C15.93223267 -0.10551147 15.93223267 -0.10551147 17.14233398 -0.11352539 C19 0 19 0 20 1 C20.07330331 3.86469325 20.09217831 6.69893674 20.0625 9.5625 C20.041875 12.346875 20.02125 15.13125 20 18 C13.4 18 6.8 18 0 18 C0 12.06 0 6.12 0 0 Z M1 2 C1 6.95 1 11.9 1 17 C6.61 17 12.22 17 18 17 C18 12.05 18 7.1 18 2 C12.39 2 6.78 2 1 2 Z " fill="#38404C" transform="translate(76,339)"/>
<path d="M0 0 C6.6 0 13.2 0 20 0 C20.020625 2.784375 20.04125 5.56875 20.0625 8.4375 C20.071604 9.31591553 20.08070801 10.19433105 20.09008789 11.09936523 C20.09723091 13.06645974 20.05031893 15.03353621 20 17 C19 18 19 18 17.14233398 18.11352539 C16.35157471 18.10828857 15.56081543 18.10305176 14.74609375 18.09765625 C13.89208984 18.09443359 13.03808594 18.09121094 12.15820312 18.08789062 C11.26037109 18.07951172 10.36253906 18.07113281 9.4375 18.0625 C8.53580078 18.05798828 7.63410156 18.05347656 6.70507812 18.04882812 C4.47002411 18.03700244 2.23500398 18.01906638 0 18 C0 12.06 0 6.12 0 0 Z M1 1 C1 5.95 1 10.9 1 16 C6.61 16 12.22 16 18 16 C18 11.05 18 6.1 18 1 C12.39 1 6.78 1 1 1 Z " fill="#353D4A" transform="translate(76,296)"/>
<path d="M0 0 C0.66 0 1.32 0 2 0 C2 5.94 2 11.88 2 18 C-4.6 18 -11.2 18 -18 18 C-18 12.39 -18 6.78 -18 1 C-17.34 1 -16.68 1 -16 1 C-16 5.95 -16 10.9 -16 16 C-10.72 16 -5.44 16 0 16 C0 10.72 0 5.44 0 0 Z " fill="#313947" transform="translate(68,296)"/>
<path d="M0 0 C2.31 0 4.62 0 7 0 C7 4.95 7 9.9 7 15 C4.69 15 2.38 15 0 15 C0 10.05 0 5.1 0 0 Z " fill="#333540" transform="translate(261,297)"/>
<path d="M0 0 C1.18613892 0.00785522 1.18613892 0.00785522 2.39624023 0.01586914 C3.67724609 0.02070313 3.67724609 0.02070313 4.98413086 0.02563477 C5.88196289 0.03401367 6.77979492 0.04239258 7.70483398 0.05102539 C8.6065332 0.05553711 9.50823242 0.06004883 10.43725586 0.06469727 C12.67234712 0.07652315 14.90730835 0.09300319 17.14233398 0.11352539 C17.14233398 0.77352539 17.14233398 1.43352539 17.14233398 2.11352539 C11.20233398 2.11352539 5.26233398 2.11352539 -0.85766602 2.11352539 C-0.85766602 7.06352539 -0.85766602 12.01352539 -0.85766602 17.11352539 C5.08233398 17.11352539 11.02233398 17.11352539 17.14233398 17.11352539 C17.14233398 17.44352539 17.14233398 17.77352539 17.14233398 18.11352539 C10.54233398 18.11352539 3.94233398 18.11352539 -2.85766602 18.11352539 C-2.87829102 15.32915039 -2.89891602 12.54477539 -2.92016602 9.67602539 C-2.92927002 8.79760986 -2.93837402 7.91919434 -2.94775391 7.01416016 C-2.95489692 5.04706565 -2.90798495 3.07998918 -2.85766602 1.11352539 C-1.85766602 0.11352539 -1.85766602 0.11352539 0 0 Z " fill="#353D49" transform="translate(26.857666015625,360.886474609375)"/>
<path d="M0 0 C1.65 0 3.3 0 5 0 C5.15855469 0.59167969 5.31710938 1.18335938 5.48046875 1.79296875 C7.06708906 7.16643974 8.72624563 10.18827313 13 14 C13 14.66 13 15.32 13 16 C7.2355828 14.52538165 3.95131178 11.97342748 0.6875 7 C-0.14427957 4.58027761 -0.14114911 2.5406839 0 0 Z " fill="#30343F" transform="translate(237,261)"/>
<path d="M0 0 C1.65 0 3.3 0 5 0 C5 4.95 5 9.9 5 15 C3.35 15 1.7 15 0 15 C0 10.05 0 5.1 0 0 Z " fill="#33353E" transform="translate(261,156)"/>
<path d="M0 0 C1.18613892 0.00785522 1.18613892 0.00785522 2.39624023 0.01586914 C3.67724609 0.02070313 3.67724609 0.02070313 4.98413086 0.02563477 C5.88196289 0.03401367 6.77979492 0.04239258 7.70483398 0.05102539 C8.6065332 0.05553711 9.50823242 0.06004883 10.43725586 0.06469727 C12.67234712 0.07652315 14.90730835 0.09300319 17.14233398 0.11352539 C17.14233398 0.77352539 17.14233398 1.43352539 17.14233398 2.11352539 C11.20233398 2.11352539 5.26233398 2.11352539 -0.85766602 2.11352539 C-0.85766602 7.39352539 -0.85766602 12.67352539 -0.85766602 18.11352539 C-1.51766602 18.11352539 -2.17766602 18.11352539 -2.85766602 18.11352539 C-2.88450914 15.30096258 -2.90442789 12.48865298 -2.92016602 9.67602539 C-2.92854492 8.87358398 -2.93692383 8.07114258 -2.94555664 7.24438477 C-2.95418032 5.20057318 -2.90994751 3.15668637 -2.85766602 1.11352539 C-1.85766602 0.11352539 -1.85766602 0.11352539 0 0 Z " fill="#3F4651" transform="translate(26.857666015625,338.886474609375)"/>
<path d="M0 0 C0.33 0 0.66 0 1 0 C1.02684312 2.81256281 1.04676188 5.62487241 1.0625 8.4375 C1.07087891 9.23994141 1.07925781 10.04238281 1.08789062 10.86914062 C1.0965143 12.91295221 1.0522815 14.95683902 1 17 C0 18 0 18 -1.85766602 18.11352539 C-2.64842529 18.10828857 -3.43918457 18.10305176 -4.25390625 18.09765625 C-5.10791016 18.09443359 -5.96191406 18.09121094 -6.84179688 18.08789062 C-7.73962891 18.07951172 -8.63746094 18.07113281 -9.5625 18.0625 C-10.46419922 18.05798828 -11.36589844 18.05347656 -12.29492188 18.04882812 C-14.53001314 18.03700225 -16.76497437 18.0205222 -19 18 C-18.67 17.34 -18.34 16.68 -18 16 C-12.39 16 -6.78 16 -1 16 C-1.0395679 11.10846529 -1.0395679 11.10846529 -1.09008789 6.21704102 C-1.09724913 4.47778283 -1.05024702 2.73854696 -1 1 C-0.67 0.67 -0.34 0.34 0 0 Z " fill="#4B525F" transform="translate(95,318)"/>
<path d="M0 0 C0.66 0 1.32 0 2 0 C2 4.29 2 8.58 2 13 C7.61 13 13.22 13 19 13 C19 13.66 19 14.32 19 15 C16.02077407 15.02683987 13.04178705 15.04676037 10.0625 15.0625 C8.78729492 15.07506836 8.78729492 15.07506836 7.48632812 15.08789062 C6.67744141 15.09111328 5.86855469 15.09433594 5.03515625 15.09765625 C4.2862915 15.10289307 3.53742676 15.10812988 2.76586914 15.11352539 C1 15 1 15 0 14 C-0.07271741 11.64686445 -0.08370868 9.29166332 -0.0625 6.9375 C-0.05347656 5.64714844 -0.04445312 4.35679687 -0.03515625 3.02734375 C-0.02355469 2.02832031 -0.01195312 1.02929688 0 0 Z " fill="#3C4350" transform="translate(50,321)"/>
<path d="M0 0 C0 0.33 0 0.66 0 1 C-0.64549805 1.11593506 -1.29099609 1.23187012 -1.95605469 1.35131836 C-4.88762233 1.87865267 -7.81881297 2.40805434 -10.75 2.9375 C-11.76578125 3.11990234 -12.7815625 3.30230469 -13.828125 3.49023438 C-15.29765625 3.75610352 -15.29765625 3.75610352 -16.796875 4.02734375 C-17.69760742 4.18968506 -18.59833984 4.35202637 -19.52636719 4.51928711 C-21.70867016 4.94338448 -23.85016521 5.43621679 -26 6 C-26.66 5.01 -27.32 4.02 -28 3 C-18.34613668 0.53518383 -9.95441792 -0.40846396 0 0 Z " fill="#283E56" transform="translate(255,127)"/>
<path d="M0 0 C17.82 0 35.64 0 54 0 C54 0.33 54 0.66 54 1 C36.18 1 18.36 1 0 1 C0 0.67 0 0.34 0 0 Z " fill="#E9E9E9" transform="translate(46,397)"/>
<path d="M0 0 C0.33 0 0.66 0 1 0 C1 17.16 1 34.32 1 52 C0.67 52 0.34 52 0 52 C0 34.84 0 17.68 0 0 Z " fill="#E9E9E9" transform="translate(5,282)"/>
<path d="M0 0 C0.495 1.485 0.495 1.485 1 3 C-14.51 3 -30.02 3 -46 3 C-46 2.67 -46 2.34 -46 2 C-30.82 2 -15.64 2 0 2 C0 1.34 0 0.68 0 0 Z " fill="#DFE5E9" transform="translate(94,216)"/>
<path d="M0 0 C0.33 0 0.66 0 1 0 C1 16.17 1 32.34 1 49 C0.67 49 0.34 49 0 49 C0 32.83 0 16.66 0 0 Z " fill="#FD3E36" transform="translate(276,54)"/>
<path d="M0 0 C0.33 0 0.66 0 1 0 C1 15.84 1 31.68 1 48 C0.67 48 0.34 48 0 48 C0 32.16 0 16.32 0 0 Z " fill="#2795E7" transform="translate(256,79)"/>
<path d="M0 0 C13.2 0 26.4 0 40 0 C40 0.33 40 0.66 40 1 C26.8 1 13.6 1 0 1 C0 0.67 0 0.34 0 0 Z " fill="#67B441" transform="translate(238,397)"/>
<path d="M0 0 C0.73839111 0.21994629 1.47678223 0.43989258 2.23754883 0.66650391 C3.03999023 0.89853516 3.84243164 1.13056641 4.66918945 1.36962891 C5.91925781 1.75248047 5.91925781 1.75248047 7.19458008 2.14306641 C8.03956055 2.39056641 8.88454102 2.63806641 9.75512695 2.89306641 C11.84287426 3.5064159 13.9262393 4.1317527 16.00708008 4.76806641 C13.8309714 6.08653226 12.56219346 6.83197306 9.99243164 6.53613281 C9.30117188 6.31618652 8.60991211 6.09624023 7.89770508 5.86962891 C7.14360352 5.63759766 6.38950195 5.40556641 5.61254883 5.16650391 C4.83524414 4.91126953 4.05793945 4.65603516 3.25708008 4.39306641 C2.46430664 4.14556641 1.6715332 3.89806641 0.85473633 3.64306641 C-1.09863459 3.03116708 -3.04637093 2.40133235 -4.99291992 1.76806641 C-1.99291992 -0.23193359 -1.99291992 -0.23193359 0 0 Z " fill="#473C38" transform="translate(267.992919921875,224.23193359375)"/>
<path d="M0 0 C6.55925943 0.38979206 11.94526627 1.42113193 18 4 C16.453125 5.1484375 16.453125 5.1484375 14 6 C11.43134571 5.33168497 9.19008007 4.60698344 6.75 3.625 C6.1003125 3.3775 5.450625 3.13 4.78125 2.875 C3.18222963 2.26360986 1.59035444 1.63359041 0 1 C0 0.67 0 0.34 0 0 Z " fill="#37363D" transform="translate(267,171)"/>
<path d="M0 0 C10.56 0 21.12 0 32 0 C32 0.33 32 0.66 32 1 C21.44 1 10.88 1 0 1 C0 0.67 0 0.34 0 0 Z " fill="#D6690B" transform="translate(210,259)"/>
<path d="M0 0 C0.99 0 1.98 0 3 0 C3 9.24 3 18.48 3 28 C1 26 1 26 0.86474609 23.47802734 C0.91711426 22.4411377 0.96948242 21.40424805 1.0234375 20.3359375 C1.075 19.21445312 1.1265625 18.09296875 1.1796875 16.9375 C1.24414062 15.761875 1.30859375 14.58625 1.375 13.375 C1.43171875 12.19164062 1.4884375 11.00828125 1.546875 9.7890625 C1.68866243 6.85878888 1.84010333 3.92933228 2 1 C1.34 0.67 0.68 0.34 0 0 Z " fill="#EC7005" transform="translate(245,244)"/>
<path d="M0 0 C10.23 0 20.46 0 31 0 C31 0.33 31 0.66 31 1 C20.77 1 10.54 1 0 1 C0 0.67 0 0.34 0 0 Z " fill="#D96A0A" transform="translate(273,207)"/>
<path d="M0 0 C2 2 2 2 2.13525391 4.43017578 C2.08288574 5.4251709 2.03051758 6.42016602 1.9765625 7.4453125 C1.925 8.52167969 1.8734375 9.59804687 1.8203125 10.70703125 C1.75585938 11.83496094 1.69140625 12.96289062 1.625 14.125 C1.56828125 15.26066406 1.5115625 16.39632812 1.453125 17.56640625 C1.31135306 20.3782163 1.15991439 23.18917281 1 26 C1.66 26.33 2.32 26.66 3 27 C2.01 27 1.02 27 0 27 C0 18.09 0 9.18 0 0 Z " fill="#32343D" transform="translate(267,197)"/>
<path d="M0 0 C1.48206495 0.254496 2.96068615 0.52911762 4.4375 0.8125 C5.67306641 1.03873047 5.67306641 1.03873047 6.93359375 1.26953125 C7.61550781 1.51058594 8.29742187 1.75164062 9 2 C9.33 2.99 9.66 3.98 10 5 C5.97007218 4.44687265 1.97977076 3.8441938 -2 3 C-1.34 2.67 -0.68 2.34 0 2 C0 1.34 0 0.68 0 0 Z " fill="#304441" transform="translate(225,341)"/>
<path d="M0 0 C0 7.26 0 14.52 0 22 C-2 20 -2 20 -2.16015625 16.15625 C-2.13752468 14.60399032 -2.10454534 13.05185518 -2.0625 11.5 C-1.67248968 6.09080154 -1.67248968 6.09080154 -3 1 C-1 0 -1 0 0 0 Z " fill="#CC660F" transform="translate(248,195)"/>
<path d="M0 0 C7.92 0 15.84 0 24 0 C24 0.33 24 0.66 24 1 C16.08 1 8.16 1 0 1 C0 0.67 0 0.34 0 0 Z " fill="#A53A39" transform="translate(278,52)"/>
<path d="M0 0 C0.33 0 0.66 0 1 0 C1 6.6 1 13.2 1 20 C0.67 20 0.34 20 0 20 C0 13.4 0 6.8 0 0 Z " fill="#283140" transform="translate(422,227)"/>
<path d="M0 0 C1.65 0 3.3 0 5 0 C5 4.29 5 8.58 5 13 C4.67 13 4.34 13 4 13 C4 9.04 4 5.08 4 1 C2.68 0.67 1.36 0.34 0 0 Z " fill="#F67301" transform="translate(243,298)"/>
<path d="M0 0 C0.33 0 0.66 0 1 0 C1 4.29 1 8.58 1 13 C-0.65 13 -2.3 13 -4 13 C-2.68 12.67 -1.36 12.34 0 12 C0 8.04 0 4.08 0 0 Z " fill="#F67401" transform="translate(247,157)"/>
<path d="M0 0 C0.33 0 0.66 0 1 0 C1 3.96 1 7.92 1 12 C2.98 12.495 2.98 12.495 5 13 C3.35 13 1.7 13 0 13 C0 8.71 0 4.42 0 0 Z " fill="#2E333E" transform="translate(267,157)"/>
<path d="M0 0 C5.28 0 10.56 0 16 0 C16 0.33 16 0.66 16 1 C10.72 1 5.44 1 0 1 C0 0.67 0 0.34 0 0 Z " fill="#B96014" transform="translate(250,313)"/>
<path d="M0 0 C0.33 0 0.66 0 1 0 C1 5.28 1 10.56 1 16 C0.67 16 0.34 16 0 16 C0 10.72 0 5.44 0 0 Z " fill="#E9E9E9" transform="translate(6,263)"/>
<path d="M0 0 C5.28 0 10.56 0 16 0 C16 0.33 16 0.66 16 1 C10.72 1 5.44 1 0 1 C0 0.67 0 0.34 0 0 Z " fill="#B96014" transform="translate(250,154)"/>
<path d="M0 0 C0.33 0 0.66 0 1 0 C1 4.95 1 9.9 1 15 C0.67 15 0.34 15 0 15 C0 10.05 0 5.1 0 0 Z " fill="#E9E9E9" transform="translate(6,337)"/>
<path d="M0 0 C4.95 0 9.9 0 15 0 C15 0.33 15 0.66 15 1 C10.05 1 5.1 1 0 1 C0 0.67 0 0.34 0 0 Z " fill="#E9E9E9" transform="translate(27,219)"/>
<path d="M0 0 C0.33 0 0.66 0 1 0 C1 4.95 1 9.9 1 15 C0.67 15 0.34 15 0 15 C0 10.05 0 5.1 0 0 Z " fill="#F67301" transform="translate(208,200)"/>
<path d="M0 0 C0.33 0 0.66 0 1 0 C1 4.62 1 9.24 1 14 C0.67 14 0.34 14 0 14 C0 9.38 0 4.76 0 0 Z " fill="#283140" transform="translate(307,253)"/>
<path d="M0 0 C0.33 0 0.66 0 1 0 C1 4.62 1 9.24 1 14 C0.67 14 0.34 14 0 14 C0 9.38 0 4.76 0 0 Z " fill="#283140" transform="translate(153,230)"/>
<path d="M0 0 C3.96 0 7.92 0 12 0 C12 0.33 12 0.66 12 1 C8.04 1 4.08 1 0 1 C0 0.67 0 0.34 0 0 Z " fill="#E9E9E9" transform="translate(101,396)"/>
<path d="M0 0 C3.96 0 7.92 0 12 0 C12 0.33 12 0.66 12 1 C8.04 1 4.08 1 0 1 C0 0.67 0 0.34 0 0 Z " fill="#E9E9E9" transform="translate(32,396)"/>
<path d="M0 0 C3.96 0 7.92 0 12 0 C12 0.33 12 0.66 12 1 C8.04 1 4.08 1 0 1 C0 0.67 0 0.34 0 0 Z " fill="#6FCD41" transform="translate(252,345)"/>
<path d="M0 0 C0.33 0 0.66 0 1 0 C1 3.63 1 7.26 1 11 C0.67 11 0.34 11 0 11 C0 7.37 0 3.74 0 0 Z " fill="#E9E9E9" transform="translate(138,350)"/>
<path d="M0 0 C0.33 0 0.66 0 1 0 C1 3.63 1 7.26 1 11 C0.67 11 0.34 11 0 11 C0 7.37 0 3.74 0 0 Z " fill="#E9E9E9" transform="translate(7,249)"/>
<path d="M0 0 C0.33 0 0.66 0 1 0 C1 3.3 1 6.6 1 10 C0.67 10 0.34 10 0 10 C0 6.7 0 3.4 0 0 Z " fill="#E9E9E9" transform="translate(7,356)"/>
<path d="M0 0 C0.33 0 0.66 0 1 0 C1 3.3 1 6.6 1 10 C0.67 10 0.34 10 0 10 C0 6.7 0 3.4 0 0 Z " fill="#FEB801" transform="translate(362,232)"/>
<path d="M0 0 C3.3 0 6.6 0 10 0 C10 0.33 10 0.66 10 1 C6.7 1 3.4 1 0 1 C0 0.67 0 0.34 0 0 Z " fill="#2795E7" transform="translate(236,77)"/>
<path d="M0 0 C0.33 0 0.66 0 1 0 C1 2.97 1 5.94 1 9 C0.67 9 0.34 9 0 9 C0 6.03 0 3.06 0 0 Z " fill="#E9E9E9" transform="translate(8,368)"/>
<path d="M0 0 C0.33 0 0.66 0 1 0 C1 2.97 1 5.94 1 9 C0.67 9 0.34 9 0 9 C0 6.03 0 3.06 0 0 Z " fill="#E9E9E9" transform="translate(137,364)"/>
<path d="M0 0 C0.33 0 0.66 0 1 0 C1 2.97 1 5.94 1 9 C0.67 9 0.34 9 0 9 C0 6.03 0 3.06 0 0 Z " fill="#E9E9E9" transform="translate(8,238)"/>
<path d="M0 0 C2.97 0 5.94 0 9 0 C9 0.33 9 0.66 9 1 C6.03 1 3.06 1 0 1 C0 0.67 0 0.34 0 0 Z " fill="#F63E35" transform="translate(278,104)"/>
<path d="M0 0 C2.64 0 5.28 0 8 0 C8 0.33 8 0.66 8 1 C5.36 1 2.72 1 0 1 C0 0.67 0 0.34 0 0 Z " fill="#E9E9E9" transform="translate(115,395)"/>
<path d="M0 0 C2.64 0 5.28 0 8 0 C8 0.33 8 0.66 8 1 C5.36 1 2.72 1 0 1 C0 0.67 0 0.34 0 0 Z " fill="#E9E9E9" transform="translate(23,395)"/>
<path d="M0 0 C0.33 0 0.66 0 1 0 C1 2.64 1 5.28 1 8 C0.67 8 0.34 8 0 8 C0 5.36 0 2.72 0 0 Z " fill="#293140" transform="translate(421,250)"/>
<path d="M0 0 C0.33 0 0.66 0 1 0 C1 2.64 1 5.28 1 8 C0.67 8 0.34 8 0 8 C0 5.36 0 2.72 0 0 Z " fill="#283141" transform="translate(154,246)"/>
<path d="M0 0 C0.33 0 0.66 0 1 0 C1 2.64 1 5.28 1 8 C0.67 8 0.34 8 0 8 C0 5.36 0 2.72 0 0 Z " fill="#283140" transform="translate(154,221)"/>
<path d="M0 0 C0.33 0 0.66 0 1 0 C1 2.64 1 5.28 1 8 C0.67 8 0.34 8 0 8 C0 5.36 0 2.72 0 0 Z " fill="#FEB802" transform="translate(361,221)"/>
<path d="M0 0 C2.31 0 4.62 0 7 0 C7 0.33 7 0.66 7 1 C4.69 1 2.38 1 0 1 C0 0.67 0 0.34 0 0 Z " fill="#283240" transform="translate(279,396)"/>
<path d="M0 0 C2.31 0 4.62 0 7 0 C7 0.33 7 0.66 7 1 C4.69 1 2.38 1 0 1 C0 0.67 0 0.34 0 0 Z " fill="#6BD241" transform="translate(230,396)"/>
<path d="M0 0 C0.33 0 0.66 0 1 0 C1 2.31 1 4.62 1 7 C0.67 7 0.34 7 0 7 C0 4.69 0 2.38 0 0 Z " fill="#E9E9E9" transform="translate(136,375)"/>
<path d="M0 0 C0.33 0 0.66 0 1 0 C1 2.31 1 4.62 1 7 C0.67 7 0.34 7 0 7 C0 4.69 0 2.38 0 0 Z " fill="#F67301" transform="translate(208,261)"/>
<path d="M0 0 C0.33 0 0.66 0 1 0 C1 2.31 1 4.62 1 7 C0.67 7 0.34 7 0 7 C0 4.69 0 2.38 0 0 Z " fill="#FEB802" transform="translate(361,246)"/>
<path d="M0 0 C0.33 0 0.66 0 1 0 C1 2.31 1 4.62 1 7 C0.67 7 0.34 7 0 7 C0 4.69 0 2.38 0 0 Z " fill="#283141" transform="translate(421,217)"/>
<path d="M0 0 C2.31 0 4.62 0 7 0 C7 0.33 7 0.66 7 1 C4.69 1 2.38 1 0 1 C0 0.67 0 0.34 0 0 Z " fill="#FE3E35" transform="translate(289,105)"/>
<path d="M0 0 C2.31 0 4.62 0 7 0 C7 0.33 7 0.66 7 1 C4.69 1 2.38 1 0 1 C0 0.67 0 0.34 0 0 Z " fill="#293140" transform="translate(303,53)"/>
<path d="M0 0 C1.98 0 3.96 0 6 0 C6 0.33 6 0.66 6 1 C4.02 1 2.04 1 0 1 C0 0.67 0 0.34 0 0 Z " fill="#6BD241" transform="translate(266,344)"/>
<path d="M0 0 C1.98 0 3.96 0 6 0 C6 0.33 6 0.66 6 1 C4.02 1 2.04 1 0 1 C0 0.67 0 0.34 0 0 Z " fill="#2B3940" transform="translate(244,344)"/>
<path d="M0 0 C0.33 0 0.66 0 1 0 C1 1.98 1 3.96 1 6 C0.67 6 0.34 6 0 6 C0 4.02 0 2.04 0 0 Z " fill="#F67301" transform="translate(273,259)"/>
<path d="M0 0 C0.33 0 0.66 0 1 0 C1 1.98 1 3.96 1 6 C0.67 6 0.34 6 0 6 C0 4.02 0 2.04 0 0 Z " fill="#293241" transform="translate(242,203)"/>
<path d="M0 0 C1.98 0 3.96 0 6 0 C6 0.33 6 0.66 6 1 C4.02 1 2.04 1 0 1 C0 0.67 0 0.34 0 0 Z " fill="#283242" transform="translate(242,130)"/>
<path d="M0 0 C1.98 0 3.96 0 6 0 C6 0.33 6 0.66 6 1 C4.02 1 2.04 1 0 1 C0 0.67 0 0.34 0 0 Z " fill="#2795E7" transform="translate(248,76)"/>
<path d="M0 0 C1.65 0 3.3 0 5 0 C5 0.33 5 0.66 5 1 C3.35 1 1.7 1 0 1 C0 0.67 0 0.34 0 0 Z " fill="#6BD341" transform="translate(224,395)"/>
<path d="M0 0 C0.33 0 0.66 0 1 0 C1 1.65 1 3.3 1 5 C0.67 5 0.34 5 0 5 C0 3.35 0 1.7 0 0 Z " fill="#E9E9E9" transform="translate(9,378)"/>
<path d="M0 0 C1.65 0 3.3 0 5 0 C5 0.33 5 0.66 5 1 C3.35 1 1.7 1 0 1 C0 0.67 0 0.34 0 0 Z " fill="#36353C" transform="translate(269,298)"/>
<path d="M0 0 C0.33 0 0.66 0 1 0 C1 1.65 1 3.3 1 5 C0.67 5 0.34 5 0 5 C0 3.35 0 1.7 0 0 Z " fill="#283241" transform="translate(420,260)"/>
<path d="M0 0 C0.33 0 0.66 0 1 0 C1 1.65 1 3.3 1 5 C0.67 5 0.34 5 0 5 C0 3.35 0 1.7 0 0 Z " fill="#FEB801" transform="translate(360,254)"/>
<path d="M0 0 C0.33 0 0.66 0 1 0 C1 1.65 1 3.3 1 5 C0.67 5 0.34 5 0 5 C0 3.35 0 1.7 0 0 Z " fill="#EAEAEA" transform="translate(9,232)"/>
<path d="M0 0 C0.33 0 0.66 0 1 0 C1 1.65 1 3.3 1 5 C0.67 5 0.34 5 0 5 C0 3.35 0 1.7 0 0 Z " fill="#283140" transform="translate(155,215)"/>
<path d="M0 0 C1.65 0 3.3 0 5 0 C5 0.33 5 0.66 5 1 C3.35 1 1.7 1 0 1 C0 0.67 0 0.34 0 0 Z " fill="#FFB801" transform="translate(365,216)"/>
<path d="M0 0 C1.65 0 3.3 0 5 0 C5 0.33 5 0.66 5 1 C3.35 1 1.7 1 0 1 C0 0.67 0 0.34 0 0 Z " fill="#FEB802" transform="translate(370,215)"/>
<path d="M0 0 C1.65 0 3.3 0 5 0 C5 0.33 5 0.66 5 1 C3.35 1 1.7 1 0 1 C0 0.67 0 0.34 0 0 Z " fill="#FEB801" transform="translate(376,214)"/>
<path d="M0 0 C1.65 0 3.3 0 5 0 C5 0.33 5 0.66 5 1 C3.35 1 1.7 1 0 1 C0 0.67 0 0.34 0 0 Z " fill="#FFB902" transform="translate(383,213)"/>
<path d="M0 0 C0.33 0 0.66 0 1 0 C1 1.65 1 3.3 1 5 C0.67 5 0.34 5 0 5 C0 3.35 0 1.7 0 0 Z " fill="#2796E7" transform="translate(95,210)"/>
<path d="M0 0 C1.65 0 3.3 0 5 0 C5 0.33 5 0.66 5 1 C3.35 1 1.7 1 0 1 C0 0.67 0 0.34 0 0 Z " fill="#FEB902" transform="translate(389,212)"/>
<path d="M0 0 C0.33 0 0.66 0 1 0 C1 1.65 1 3.3 1 5 C0.67 5 0.34 5 0 5 C0 3.35 0 1.7 0 0 Z " fill="#293241" transform="translate(420,210)"/>
<path d="M0 0 C1.65 0 3.3 0 5 0 C5 0.33 5 0.66 5 1 C3.35 1 1.7 1 0 1 C0 0.67 0 0.34 0 0 Z " fill="#FEB801" transform="translate(395,211)"/>
<path d="M0 0 C1.65 0 3.3 0 5 0 C5 0.33 5 0.66 5 1 C3.35 1 1.7 1 0 1 C0 0.67 0 0.34 0 0 Z " fill="#FEB801" transform="translate(401,210)"/>
<path d="M0 0 C1.65 0 3.3 0 5 0 C5 0.33 5 0.66 5 1 C3.35 1 1.7 1 0 1 C0 0.67 0 0.34 0 0 Z " fill="#B48A17" transform="translate(407,209)"/>
<path d="M0 0 C1.65 0 3.3 0 5 0 C5 0.33 5 0.66 5 1 C3.35 1 1.7 1 0 1 C0 0.67 0 0.34 0 0 Z " fill="#283141" transform="translate(413,208)"/>
<path d="M0 0 C1.65 0 3.3 0 5 0 C5 0.33 5 0.66 5 1 C3.35 1 1.7 1 0 1 C0 0.67 0 0.34 0 0 Z " fill="#FE3E35" transform="translate(387,196)"/>
<path d="M0 0 C1.65 0 3.3 0 5 0 C5 0.33 5 0.66 5 1 C3.35 1 1.7 1 0 1 C0 0.67 0 0.34 0 0 Z " fill="#FF3F35" transform="translate(394,195)"/>
<path d="M0 0 C1.65 0 3.3 0 5 0 C5 0.33 5 0.66 5 1 C3.35 1 1.7 1 0 1 C0 0.67 0 0.34 0 0 Z " fill="#FE3E35" transform="translate(400,194)"/>
<path d="M0 0 C1.65 0 3.3 0 5 0 C5 0.33 5 0.66 5 1 C3.35 1 1.7 1 0 1 C0 0.67 0 0.34 0 0 Z " fill="#FF3E36" transform="translate(405,193)"/>
<path d="M0 0 C1.65 0 3.3 0 5 0 C5 0.33 5 0.66 5 1 C3.35 1 1.7 1 0 1 C0 0.67 0 0.34 0 0 Z " fill="#FE3E35" transform="translate(411,192)"/>
<path d="M0 0 C1.65 0 3.3 0 5 0 C5 0.33 5 0.66 5 1 C3.35 1 1.7 1 0 1 C0 0.67 0 0.34 0 0 Z " fill="#FE3E35" transform="translate(418,191)"/>
<path d="M0 0 C1.65 0 3.3 0 5 0 C5 0.33 5 0.66 5 1 C3.35 1 1.7 1 0 1 C0 0.67 0 0.34 0 0 Z " fill="#FF3E35" transform="translate(424,190)"/>
<path d="M0 0 C1.65 0 3.3 0 5 0 C5 0.33 5 0.66 5 1 C3.35 1 1.7 1 0 1 C0 0.67 0 0.34 0 0 Z " fill="#FA3E36" transform="translate(430,189)"/>
<path d="M0 0 C1.65 0 3.3 0 5 0 C5 0.33 5 0.66 5 1 C3.35 1 1.7 1 0 1 C0 0.67 0 0.34 0 0 Z " fill="#283140" transform="translate(436,188)"/>
<path d="M0 0 C1.65 0 3.3 0 5 0 C5 0.33 5 0.66 5 1 C3.35 1 1.7 1 0 1 C0 0.67 0 0.34 0 0 Z " fill="#276A9F" transform="translate(249,129)"/>
<path d="M0 0 C1.65 0 3.3 0 5 0 C5 0.33 5 0.66 5 1 C3.35 1 1.7 1 0 1 C0 0.67 0 0.34 0 0 Z " fill="#2896E8" transform="translate(229,78)"/>
<path d="M0 0 C1.65 0 3.3 0 5 0 C5 0.33 5 0.66 5 1 C3.35 1 1.7 1 0 1 C0 0.67 0 0.34 0 0 Z " fill="#283140" transform="translate(311,54)"/>
<path d="M0 0 C4 1 4 1 4 1 Z " fill="#283140" transform="translate(287,395)"/>
<path d="M0 0 C4 1 4 1 4 1 Z " fill="#283240" transform="translate(297,393)"/>
<path d="M0 0 C4 1 4 1 4 1 Z " fill="#6BD341" transform="translate(215,393)"/>
<path d="M0 0 C4 1 4 1 4 1 Z " fill="#293240" transform="translate(301,392)"/>
<path d="M0 0 C4 1 4 1 4 1 Z " fill="#6BD342" transform="translate(211,392)"/>
<path d="M0 0 C4 1 4 1 4 1 Z " fill="#6CD342" transform="translate(273,343)"/>
<path d="M0 0 C4 1 4 1 4 1 Z " fill="#293241" transform="translate(239,343)"/>
<path d="M0 0 C4 1 4 1 4 1 Z " fill="#6BD342" transform="translate(278,342)"/>
<path d="M0 0 C4 1 4 1 4 1 Z " fill="#293240" transform="translate(234,342)"/>
<path d="M0 0 C4 1 4 1 4 1 Z " fill="#283140" transform="translate(274,297)"/>
<path d="M0 0 C1 4 1 4 1 4 Z " fill="#283241" transform="translate(419,266)"/>
<path d="M0 0 C1 4 1 4 1 4 Z " fill="#283140" transform="translate(156,260)"/>
<path d="M0 0 C1 4 1 4 1 4 Z " fill="#283140" transform="translate(243,261)"/>
<path d="M0 0 C1 4 1 4 1 4 Z " fill="#293141" transform="translate(155,255)"/>
<path d="M0 0 C4 1 4 1 4 1 Z " fill="#EAEAEA" transform="translate(21,220)"/>
<path d="M0 0 C1 4 1 4 1 4 Z " fill="#2795E7" transform="translate(96,205)"/>
<path d="M0 0 C1 4 1 4 1 4 Z " fill="#2895E7" transform="translate(97,200)"/>
<path d="M0 0 C1 4 1 4 1 4 Z " fill="#293241" transform="translate(305,199)"/>
<path d="M0 0 C1 4 1 4 1 4 Z " fill="#FF3E35" transform="translate(384,188)"/>
<path d="M0 0 C1 4 1 4 1 4 Z " fill="#283140" transform="translate(444,182)"/>
<path d="M0 0 C1 4 1 4 1 4 Z " fill="#283241" transform="translate(443,177)"/>
<path d="M0 0 C1 4 1 4 1 4 Z " fill="#283240" transform="translate(442,173)"/>
<path d="M0 0 C4 1 4 1 4 1 Z " fill="#283140" transform="translate(273,170)"/>
<path d="M0 0 C4 1 4 1 4 1 Z " fill="#283140" transform="translate(233,132)"/>
<path d="M0 0 C4 1 4 1 4 1 Z " fill="#283140" transform="translate(237,131)"/>
<path d="M0 0 C4 1 4 1 4 1 Z " fill="#FE3E36" transform="translate(302,107)"/>
<path d="M0 0 C4 1 4 1 4 1 Z " fill="#FF3E35" transform="translate(297,106)"/>
<path d="M0 0 C4 1 4 1 4 1 Z " fill="#2796E7" transform="translate(210,82)"/>
<path d="M0 0 C4 1 4 1 4 1 Z " fill="#2895E7" transform="translate(218,80)"/>
<path d="M0 0 C4 1 4 1 4 1 Z " fill="#2795E7" transform="translate(223,79)"/>
<path d="M0 0 C4 1 4 1 4 1 Z " fill="#293140" transform="translate(321,56)"/>
<path d="M0 0 C4 1 4 1 4 1 Z " fill="#293140" transform="translate(316,55)"/>
<path d="M0 0 C3 1 3 1 3 1 Z " fill="#283241" transform="translate(293,394)"/>
<path d="M0 0 C3 1 3 1 3 1 Z " fill="#6CD342" transform="translate(220,394)"/>
<path d="M0 0 C3 1 3 1 3 1 Z " fill="#EAEAEA" transform="translate(123,394)"/>
<path d="M0 0 C3 1 3 1 3 1 Z " fill="#293241" transform="translate(305,391)"/>
<path d="M0 0 C3 1 3 1 3 1 Z " fill="#6CD342" transform="translate(208,391)"/>
<path d="M0 0 C3 1 3 1 3 1 Z " fill="#283141" transform="translate(308,390)"/>
<path d="M0 0 C3 1 3 1 3 1 Z " fill="#6BD242" transform="translate(205,390)"/>
<path d="M0 0 C3 1 3 1 3 1 Z " fill="#6BD342" transform="translate(196,387)"/>
<path d="" fill="#E9E9E9" transform="translate(0,0)"/>
<path d="M0 0 C3 1 3 1 3 1 Z " fill="#6CD342" transform="translate(282,341)"/>
<path d="M0 0 C3 1 3 1 3 1 Z " fill="#293241" transform="translate(231,341)"/>
<path d="M0 0 C3 1 3 1 3 1 Z " fill="#283141" transform="translate(219,337)"/>
<path d="M0 0 C3 1 3 1 3 1 Z " fill="#F67301" transform="translate(239,297)"/>
<path d="M0 0 C3 1 3 1 3 1 Z " fill="#293240" transform="translate(278,296)"/>
<path d="" fill="#283141" transform="translate(0,0)"/>
<path d="" fill="#283141" transform="translate(0,0)"/>
<path d="" fill="#293141" transform="translate(0,0)"/>
<path d="" fill="#293241" transform="translate(0,0)"/>
<path d="" fill="#283140" transform="translate(0,0)"/>
<path d="" fill="#283140" transform="translate(0,0)"/>
<path d="" fill="#FEB801" transform="translate(0,0)"/>
<path d="" fill="#283240" transform="translate(0,0)"/>
<path d="" fill="#293141" transform="translate(0,0)"/>
<path d="" fill="#F67302" transform="translate(0,0)"/>
<path d="" fill="#FFB801" transform="translate(0,0)"/>
<path d="" fill="#293140" transform="translate(0,0)"/>
<path d="" fill="#283141" transform="translate(0,0)"/>
<path d="" fill="#293140" transform="translate(0,0)"/>
<path d="" fill="#283140" transform="translate(0,0)"/>
<path d="" fill="#FEB902" transform="translate(0,0)"/>
<path d="" fill="#FFB902" transform="translate(0,0)"/>
<path d="" fill="#F77402" transform="translate(0,0)"/>
<path d="" fill="#293140" transform="translate(0,0)"/>
<path d="" fill="#283140" transform="translate(0,0)"/>
<path d="M0 0 C3 1 3 1 3 1 Z " fill="#F67301" transform="translate(241,243)"/>
<path d="M0 0 C3 1 3 1 3 1 Z " fill="#F77402" transform="translate(238,242)"/>
<path d="M0 0 C3 1 3 1 3 1 Z " fill="#F67302" transform="translate(235,241)"/>
<path d="M0 0 C3 1 3 1 3 1 Z " fill="#F67301" transform="translate(232,240)"/>
<path d="M0 0 C3 1 3 1 3 1 Z " fill="#283140" transform="translate(274,225)"/>
<path d="M0 0 C3 1 3 1 3 1 Z " fill="#283140" transform="translate(271,224)"/>
<path d="" fill="#F67301" transform="translate(0,0)"/>
<path d="" fill="#293241" transform="translate(0,0)"/>
<path d="" fill="#293240" transform="translate(0,0)"/>
<path d="" fill="#293240" transform="translate(0,0)"/>
<path d="" fill="#F77402" transform="translate(0,0)"/>
<path d="" fill="#283141" transform="translate(0,0)"/>
<path d="" fill="#F67401" transform="translate(0,0)"/>
<path d="" fill="#2795E7" transform="translate(0,0)"/>
<path d="" fill="#293141" transform="translate(0,0)"/>
<path d="" fill="#2795E7" transform="translate(0,0)"/>
<path d="" fill="#2796E8" transform="translate(0,0)"/>
<path d="" fill="#2795E7" transform="translate(0,0)"/>
<path d="" fill="#FF3F36" transform="translate(0,0)"/>
<path d="" fill="#2795E7" transform="translate(0,0)"/>
<path d="" fill="#FF3F36" transform="translate(0,0)"/>
<path d="" fill="#283241" transform="translate(0,0)"/>
<path d="M0 0 C3 1 3 1 3 1 Z " fill="#293240" transform="translate(277,171)"/>
<path d="M0 0 C3 1 3 1 3 1 Z " fill="#F67302" transform="translate(239,170)"/>
<path d="" fill="#283241" transform="translate(0,0)"/>
<path d="" fill="#283140" transform="translate(0,0)"/>
<path d="" fill="#283140" transform="translate(0,0)"/>
<path d="" fill="#293141" transform="translate(0,0)"/>
<path d="M0 0 C3 1 3 1 3 1 Z " fill="#283140" transform="translate(230,133)"/>
<path d="M0 0 C3 1 3 1 3 1 Z " fill="#FF3E36" transform="translate(313,110)"/>
<path d="M0 0 C3 1 3 1 3 1 Z " fill="#FF3E36" transform="translate(310,109)"/>
<path d="M0 0 C3 1 3 1 3 1 Z " fill="#FE3E35" transform="translate(306,108)"/>
<path d="M0 0 C3 1 3 1 3 1 Z " fill="#2796E7" transform="translate(198,86)"/>
<path d="M0 0 C3 1 3 1 3 1 Z " fill="#2896E7" transform="translate(207,83)"/>
<path d="M0 0 C3 1 3 1 3 1 Z " fill="#2896E7" transform="translate(214,81)"/>
<path d="M0 0 C3 1 3 1 3 1 Z " fill="#283241" transform="translate(329,58)"/>
<path d="M0 0 C3 1 3 1 3 1 Z " fill="#283140" transform="translate(326,57)"/>
<path d="M0 0 C2 1 2 1 2 1 Z " fill="#E9E9E9" transform="translate(20,394)"/>
<path d="M0 0 C2 1 2 1 2 1 Z " fill="#E9E9E9" transform="translate(126,393)"/>
<path d="M0 0 C2 1 2 1 2 1 Z " fill="#EAEAEA" transform="translate(18,393)"/>
<path d="M0 0 C2 1 2 1 2 1 Z " fill="#293241" transform="translate(312,389)"/>
<path d="M0 0 C2 1 2 1 2 1 Z " fill="#6BD241" transform="translate(202,389)"/>
<path d="M0 0 C2 1 2 1 2 1 Z " fill="#293241" transform="translate(315,388)"/>
<path d="M0 0 C2 1 2 1 2 1 Z " fill="#6BD342" transform="translate(199,388)"/>
<path d="M0 0 C2 1 2 1 2 1 Z " fill="#293141" transform="translate(317,387)"/>
<path d="M0 0 C2 1 2 1 2 1 Z " fill="#293141" transform="translate(320,386)"/>
<path d="M0 0 C2 1 2 1 2 1 Z " fill="#6CD342" transform="translate(194,386)"/>
<path d="M0 0 C2 1 2 1 2 1 Z " fill="#293241" transform="translate(322,385)"/>
<path d="M0 0 C2 1 2 1 2 1 Z " fill="#6CD342" transform="translate(192,385)"/>
<path d="M0 0 C2 1 2 1 2 1 Z " fill="#293241" transform="translate(325,384)"/>
<path d="M0 0 C2 1 2 1 2 1 Z " fill="#6CD342" transform="translate(189,384)"/>
<path d="" fill="#EAEAEA" transform="translate(0,0)"/>
<path d="M0 0 C2 1 2 1 2 1 Z " fill="#293241" transform="translate(327,383)"/>
<path d="M0 0 C2 1 2 1 2 1 Z " fill="#6BD342" transform="translate(187,383)"/>
<path d="M0 0 C2 1 2 1 2 1 Z " fill="#283241" transform="translate(329,382)"/>
<path d="M0 0 C2 1 2 1 2 1 Z " fill="#6CD342" transform="translate(185,382)"/>
<path d="M0 0 C2 1 2 1 2 1 Z " fill="#283241" transform="translate(331,381)"/>
<path d="M0 0 C2 1 2 1 2 1 Z " fill="#6CD242" transform="translate(183,381)"/>
<path d="M0 0 C2 1 2 1 2 1 Z " fill="#293241" transform="translate(333,380)"/>
<path d="M0 0 C2 1 2 1 2 1 Z " fill="#6BD342" transform="translate(181,380)"/>
<path d="M0 0 C2 1 2 1 2 1 Z " fill="#283240" transform="translate(335,379)"/>
<path d="M0 0 C2 1 2 1 2 1 Z " fill="#6CD242" transform="translate(179,379)"/>
<path d="M0 0 C2 1 2 1 2 1 Z " fill="#293141" transform="translate(337,378)"/>
<path d="M0 0 C2 1 2 1 2 1 Z " fill="#6BD342" transform="translate(177,378)"/>
<path d="M0 0 C2 1 2 1 2 1 Z " fill="#6CD342" transform="translate(175,377)"/>
<path d="M0 0 C2 1 2 1 2 1 Z " fill="#283241" transform="translate(342,375)"/>
<path d="M0 0 C2 1 2 1 2 1 Z " fill="#6CD241" transform="translate(172,375)"/>
<path d="M0 0 C2 1 2 1 2 1 Z " fill="#293241" transform="translate(344,374)"/>
<path d="M0 0 C2 1 2 1 2 1 Z " fill="#6BD242" transform="translate(170,374)"/>
<path d="M0 0 C2 1 2 1 2 1 Z " fill="#283141" transform="translate(347,372)"/>
<path d="M0 0 C2 1 2 1 2 1 Z " fill="#6CD342" transform="translate(167,372)"/>
<path d="M0 0 C2 1 2 1 2 1 Z " fill="#293241" transform="translate(350,370)"/>
<path d="M0 0 C2 1 2 1 2 1 Z " fill="#6BD342" transform="translate(164,370)"/>
<path d="M0 0 C2 1 2 1 2 1 Z " fill="#293241" transform="translate(353,368)"/>
<path d="M0 0 C2 1 2 1 2 1 Z " fill="#6BD342" transform="translate(161,368)"/>
<path d="M0 0 C2 1 2 1 2 1 Z " fill="#283140" transform="translate(357,365)"/>
<path d="M0 0 C2 1 2 1 2 1 Z " fill="#6BD242" transform="translate(157,365)"/>
<path d="M0 0 C2 1 2 1 2 1 Z " fill="#6BD242" transform="translate(153,362)"/>
<path d="M0 0 C2 1 2 1 2 1 Z " fill="#6BD241" transform="translate(146,356)"/>
<path d="M0 0 C2 1 2 1 2 1 Z " fill="#283140" transform="translate(369,355)"/>
<path d="" fill="#283241" transform="translate(0,0)"/>
<path d="M0 0 C2 1 2 1 2 1 Z " fill="#6CD342" transform="translate(286,340)"/>
<path d="M0 0 C2 1 2 1 2 1 Z " fill="#293241" transform="translate(228,340)"/>
<path d="M0 0 C2 1 2 1 2 1 Z " fill="#6BD241" transform="translate(289,339)"/>
<path d="M0 0 C2 1 2 1 2 1 Z " fill="#293240" transform="translate(225,339)"/>
<path d="" fill="#283140" transform="translate(0,0)"/>
<path d="M0 0 C2 1 2 1 2 1 Z " fill="#6CD241" transform="translate(292,338)"/>
<path d="M0 0 C2 1 2 1 2 1 Z " fill="#293141" transform="translate(222,338)"/>
<path d="M0 0 C2 1 2 1 2 1 Z " fill="#6BD342" transform="translate(294,337)"/>
<path d="M0 0 C2 1 2 1 2 1 Z " fill="#6CD242" transform="translate(297,336)"/>
<path d="M0 0 C2 1 2 1 2 1 Z " fill="#283140" transform="translate(217,336)"/>
<path d="M0 0 C2 1 2 1 2 1 Z " fill="#6BD342" transform="translate(299,335)"/>
<path d="M0 0 C2 1 2 1 2 1 Z " fill="#293141" transform="translate(215,335)"/>
<path d="M0 0 C2 1 2 1 2 1 Z " fill="#6CD342" transform="translate(301,334)"/>
<path d="M0 0 C2 1 2 1 2 1 Z " fill="#293241" transform="translate(213,334)"/>
<path d="M0 0 C2 1 2 1 2 1 Z " fill="#6CD342" transform="translate(303,333)"/>
<path d="M0 0 C2 1 2 1 2 1 Z " fill="#293241" transform="translate(211,333)"/>
<path d="M0 0 C2 1 2 1 2 1 Z " fill="#6CD242" transform="translate(305,332)"/>
<path d="M0 0 C2 1 2 1 2 1 Z " fill="#293241" transform="translate(209,332)"/>
<path d="M0 0 C2 1 2 1 2 1 Z " fill="#6CD342" transform="translate(307,331)"/>
<path d="M0 0 C2 1 2 1 2 1 Z " fill="#293141" transform="translate(207,331)"/>
<path d="" fill="#293140" transform="translate(0,0)"/>
<path d="M0 0 C2 1 2 1 2 1 Z " fill="#6BD241" transform="translate(312,328)"/>
<path d="M0 0 C2 1 2 1 2 1 Z " fill="#293241" transform="translate(202,328)"/>
<path d="M0 0 C2 1 2 1 2 1 Z " fill="#6CD342" transform="translate(315,326)"/>
<path d="M0 0 C2 1 2 1 2 1 Z " fill="#293140" transform="translate(199,326)"/>
<path d="M0 0 C2 1 2 1 2 1 Z " fill="#6BD342" transform="translate(319,323)"/>
<path d="M0 0 C2 1 2 1 2 1 Z " fill="#283240" transform="translate(195,323)"/>
<path d="" fill="#283140" transform="translate(0,0)"/>
<path d="M0 0 C2 1 2 1 2 1 Z " fill="#6CD342" transform="translate(324,319)"/>
<path d="M0 0 C2 1 2 1 2 1 Z " fill="#293141" transform="translate(190,319)"/>
<path d="" fill="#293241" transform="translate(0,0)"/>
<path d="" fill="#283141" transform="translate(0,0)"/>
<path d="" fill="#FFB901" transform="translate(0,0)"/>
<path d="" fill="#283140" transform="translate(0,0)"/>
<path d="" fill="#293241" transform="translate(0,0)"/>
<path d="" fill="#FEB902" transform="translate(0,0)"/>
<path d="" fill="#293241" transform="translate(0,0)"/>
<path d="" fill="#283241" transform="translate(0,0)"/>
<path d="" fill="#293241" transform="translate(0,0)"/>
<path d="" fill="#283141" transform="translate(0,0)"/>
<path d="" fill="#293241" transform="translate(0,0)"/>
<path d="M0 0 C2 1 2 1 2 1 Z " fill="#F77402" transform="translate(236,296)"/>
<path d="" fill="#283140" transform="translate(0,0)"/>
<path d="" fill="#293140" transform="translate(0,0)"/>
<path d="M0 0 C2 1 2 1 2 1 Z " fill="#293240" transform="translate(281,295)"/>
<path d="M0 0 C2 1 2 1 2 1 Z " fill="#F77402" transform="translate(233,295)"/>
<path d="" fill="#FFB802" transform="translate(0,0)"/>
<path d="M0 0 C2 1 2 1 2 1 Z " fill="#F77402" transform="translate(230,294)"/>
<path d="" fill="#293241" transform="translate(0,0)"/>
<path d="M0 0 C2 1 2 1 2 1 Z " fill="#F77301" transform="translate(228,293)"/>
<path d="M0 0 C2 1 2 1 2 1 Z " fill="#293240" transform="translate(287,292)"/>
<path d="" fill="#283140" transform="translate(0,0)"/>
<path d="" fill="#293241" transform="translate(0,0)"/>
<path d="" fill="#FFB801" transform="translate(0,0)"/>
<path d="" fill="#283240" transform="translate(0,0)"/>
<path d="" fill="#293241" transform="translate(0,0)"/>
<path d="" fill="#FFB902" transform="translate(0,0)"/>
<path d="M0 0 C2 1 2 1 2 1 Z " fill="#283141" transform="translate(294,287)"/>
<path d="" fill="#293241" transform="translate(0,0)"/>
<path d="" fill="#FFB802" transform="translate(0,0)"/>
<path d="" fill="#293241" transform="translate(0,0)"/>
<path d="" fill="#293241" transform="translate(0,0)"/>
<path d="" fill="#FFB801" transform="translate(0,0)"/>
<path d="" fill="#293241" transform="translate(0,0)"/>
<path d="" fill="#293141" transform="translate(0,0)"/>
<path d="" fill="#FFB902" transform="translate(0,0)"/>
<path d="" fill="#293241" transform="translate(0,0)"/>
<path d="" fill="#FFB802" transform="translate(0,0)"/>
<path d="" fill="#F67301" transform="translate(0,0)"/>
<path d="" fill="#283140" transform="translate(0,0)"/>
<path d="" fill="#293141" transform="translate(0,0)"/>
<path d="" fill="#F67302" transform="translate(0,0)"/>
<path d="" fill="#FFB802" transform="translate(0,0)"/>
<path d="" fill="#293140" transform="translate(0,0)"/>
<path d="" fill="#F77402" transform="translate(0,0)"/>
<path d="" fill="#F77402" transform="translate(0,0)"/>
<path d="" fill="#293241" transform="translate(0,0)"/>
<path d="" fill="#F77402" transform="translate(0,0)"/>
<path d="" fill="#283140" transform="translate(0,0)"/>
<path d="M0 0 C2 1 2 1 2 1 Z " fill="#F67301" transform="translate(230,239)"/>
<path d="M0 0 C2 1 2 1 2 1 Z " fill="#F77402" transform="translate(227,238)"/>
<path d="M0 0 C2 1 2 1 2 1 Z " fill="#F67301" transform="translate(222,235)"/>
<path d="M0 0 C2 1 2 1 2 1 Z " fill="#293240" transform="translate(292,232)"/>
<path d="" fill="#EAEAEA" transform="translate(0,0)"/>
<path d="M0 0 C2 1 2 1 2 1 Z " fill="#293240" transform="translate(286,229)"/>
<path d="" fill="#EAEAEA" transform="translate(0,0)"/>
<path d="M0 0 C2 1 2 1 2 1 Z " fill="#283140" transform="translate(284,228)"/>
<path d="M0 0 C2 1 2 1 2 1 Z " fill="#293240" transform="translate(281,227)"/>
<path d="M0 0 C2 1 2 1 2 1 Z " fill="#283140" transform="translate(278,226)"/>
<path d="" fill="#F67301" transform="translate(0,0)"/>
<path d="M0 0 C2 1 2 1 2 1 Z " fill="#E9E9E9" transform="translate(17,222)"/>
<path d="" fill="#F67301" transform="translate(0,0)"/>
<path d="M0 0 C2 1 2 1 2 1 Z " fill="#E9E9E9" transform="translate(19,221)"/>
<path d="" fill="#FFB802" transform="translate(0,0)"/>
<path d="" fill="#293241" transform="translate(0,0)"/>
<path d="" fill="#283140" transform="translate(0,0)"/>
<path d="" fill="#293241" transform="translate(0,0)"/>
<path d="" fill="#293241" transform="translate(0,0)"/>
<path d="" fill="#293241" transform="translate(0,0)"/>
<path d="" fill="#283141" transform="translate(0,0)"/>
<path d="" fill="#F77301" transform="translate(0,0)"/>
<path d="" fill="#FF3F35" transform="translate(0,0)"/>
<path d="" fill="#283140" transform="translate(0,0)"/>
<path d="" fill="#293140" transform="translate(0,0)"/>
<path d="" fill="#F77402" transform="translate(0,0)"/>
<path d="" fill="#283241" transform="translate(0,0)"/>
<path d="" fill="#283241" transform="translate(0,0)"/>
<path d="" fill="#283241" transform="translate(0,0)"/>
<path d="" fill="#293141" transform="translate(0,0)"/>
<path d="" fill="#F67402" transform="translate(0,0)"/>
<path d="" fill="#293141" transform="translate(0,0)"/>
<path d="" fill="#283140" transform="translate(0,0)"/>
<path d="" fill="#293141" transform="translate(0,0)"/>
<path d="" fill="#293141" transform="translate(0,0)"/>
<path d="" fill="#2896E8" transform="translate(0,0)"/>
<path d="" fill="#FF3F35" transform="translate(0,0)"/>
<path d="M0 0 C2 1 2 1 2 1 Z " fill="#F67402" transform="translate(221,179)"/>
<path d="" fill="#293241" transform="translate(0,0)"/>
<path d="" fill="#2896E8" transform="translate(0,0)"/>
<path d="M0 0 C2 1 2 1 2 1 Z " fill="#293141" transform="translate(291,178)"/>
<path d="" fill="#2896E8" transform="translate(0,0)"/>
<path d="" fill="#FF3F36" transform="translate(0,0)"/>
<path d="M0 0 C2 1 2 1 2 1 Z " fill="#F77301" transform="translate(225,176)"/>
<path d="" fill="#293241" transform="translate(0,0)"/>
<path d="M0 0 C2 1 2 1 2 1 Z " fill="#F67301" transform="translate(227,175)"/>
<path d="M0 0 C2 1 2 1 2 1 Z " fill="#293241" transform="translate(285,174)"/>
<path d="" fill="#2895E8" transform="translate(0,0)"/>
<path d="" fill="#FF3F35" transform="translate(0,0)"/>
<path d="M0 0 C2 1 2 1 2 1 Z " fill="#293240" transform="translate(283,173)"/>
<path d="M0 0 C2 1 2 1 2 1 Z " fill="#F67302" transform="translate(231,173)"/>
<path d="" fill="#293141" transform="translate(0,0)"/>
<path d="M0 0 C2 1 2 1 2 1 Z " fill="#293240" transform="translate(280,172)"/>
<path d="M0 0 C2 1 2 1 2 1 Z " fill="#F77402" transform="translate(233,172)"/>
<path d="" fill="#2795E7" transform="translate(0,0)"/>
<path d="" fill="#FF3E36" transform="translate(0,0)"/>
<path d="M0 0 C2 1 2 1 2 1 Z " fill="#F67302" transform="translate(236,171)"/>
<path d="" fill="#2896E8" transform="translate(0,0)"/>
<path d="" fill="#FF3E36" transform="translate(0,0)"/>
<path d="" fill="#2896E8" transform="translate(0,0)"/>
<path d="" fill="#FE3E35" transform="translate(0,0)"/>
<path d="" fill="#2895E7" transform="translate(0,0)"/>
<path d="" fill="#FF3F36" transform="translate(0,0)"/>
<path d="" fill="#2896E8" transform="translate(0,0)"/>
<path d="" fill="#FF3E36" transform="translate(0,0)"/>
<path d="" fill="#2895E8" transform="translate(0,0)"/>
<path d="" fill="#FF3E35" transform="translate(0,0)"/>
<path d="" fill="#2896E8" transform="translate(0,0)"/>
<path d="" fill="#283140" transform="translate(0,0)"/>
<path d="" fill="#FF3E35" transform="translate(0,0)"/>
<path d="" fill="#2796E8" transform="translate(0,0)"/>
<path d="" fill="#293141" transform="translate(0,0)"/>
<path d="M0 0 C2 1 2 1 2 1 Z " fill="#293241" transform="translate(192,153)"/>
<path d="" fill="#FE3E35" transform="translate(0,0)"/>
<path d="" fill="#2796E8" transform="translate(0,0)"/>
<path d="" fill="#293241" transform="translate(0,0)"/>
<path d="" fill="#283141" transform="translate(0,0)"/>
<path d="" fill="#FF3F35" transform="translate(0,0)"/>
<path d="M0 0 C2 1 2 1 2 1 Z " fill="#283140" transform="translate(200,147)"/>
<path d="" fill="#2796E7" transform="translate(0,0)"/>
<path d="" fill="#FF3E35" transform="translate(0,0)"/>
<path d="M0 0 C2 1 2 1 2 1 Z " fill="#293241" transform="translate(203,145)"/>
<path d="" fill="#283140" transform="translate(0,0)"/>
<path d="M0 0 C2 1 2 1 2 1 Z " fill="#293141" transform="translate(205,144)"/>
<path d="" fill="#2896E8" transform="translate(0,0)"/>
<path d="" fill="#283141" transform="translate(0,0)"/>
<path d="M0 0 C2 1 2 1 2 1 Z " fill="#293140" transform="translate(210,141)"/>
<path d="" fill="#283141" transform="translate(0,0)"/>
<path d="M0 0 C2 1 2 1 2 1 Z " fill="#283141" transform="translate(212,140)"/>
<path d="M0 0 C2 1 2 1 2 1 Z " fill="#293241" transform="translate(214,139)"/>
<path d="M0 0 C2 1 2 1 2 1 Z " fill="#283240" transform="translate(216,138)"/>
<path d="M0 0 C2 1 2 1 2 1 Z " fill="#293141" transform="translate(219,137)"/>
<path d="M0 0 C2 1 2 1 2 1 Z " fill="#293241" transform="translate(221,136)"/>
<path d="M0 0 C2 1 2 1 2 1 Z " fill="#283140" transform="translate(224,135)"/>
<path d="M0 0 C2 1 2 1 2 1 Z " fill="#293140" transform="translate(227,134)"/>
<path d="" fill="#293140" transform="translate(0,0)"/>
<path d="" fill="#2896E8" transform="translate(0,0)"/>
<path d="" fill="#293241" transform="translate(0,0)"/>
<path d="M0 0 C2 1 2 1 2 1 Z " fill="#FF3F36" transform="translate(346,128)"/>
<path d="" fill="#283140" transform="translate(0,0)"/>
<path d="" fill="#293140" transform="translate(0,0)"/>
<path d="M0 0 C2 1 2 1 2 1 Z " fill="#FE3E35" transform="translate(338,122)"/>
<path d="" fill="#293241" transform="translate(0,0)"/>
<path d="M0 0 C2 1 2 1 2 1 Z " fill="#FF3E36" transform="translate(333,119)"/>
<path d="M0 0 C2 1 2 1 2 1 Z " fill="#FE3E36" transform="translate(323,114)"/>
<path d="M0 0 C2 1 2 1 2 1 Z " fill="#FF3E36" transform="translate(321,113)"/>
<path d="M0 0 C2 1 2 1 2 1 Z " fill="#FE3E35" transform="translate(319,112)"/>
<path d="M0 0 C2 1 2 1 2 1 Z " fill="#FF3E36" transform="translate(316,111)"/>
<path d="M0 0 C2 1 2 1 2 1 Z " fill="#2895E7" transform="translate(154,111)"/>
<path d="" fill="#293140" transform="translate(0,0)"/>
<path d="M0 0 C2 1 2 1 2 1 Z " fill="#2896E8" transform="translate(162,105)"/>
<path d="M0 0 C2 1 2 1 2 1 Z " fill="#2896E7" transform="translate(165,103)"/>
<path d="M0 0 C2 1 2 1 2 1 Z " fill="#2796E8" transform="translate(168,101)"/>
<path d="M0 0 C2 1 2 1 2 1 Z " fill="#2896E8" transform="translate(173,98)"/>
<path d="M0 0 C2 1 2 1 2 1 Z " fill="#2896E8" transform="translate(180,94)"/>
<path d="M0 0 C2 1 2 1 2 1 Z " fill="#2796E7" transform="translate(182,93)"/>
<path d="M0 0 C2 1 2 1 2 1 Z " fill="#2896E8" transform="translate(184,92)"/>
<path d="M0 0 C2 1 2 1 2 1 Z " fill="#2896E7" transform="translate(186,91)"/>
<path d="M0 0 C2 1 2 1 2 1 Z " fill="#293241" transform="translate(389,90)"/>
<path d="M0 0 C2 1 2 1 2 1 Z " fill="#2896E8" transform="translate(191,89)"/>
<path d="M0 0 C2 1 2 1 2 1 Z " fill="#2896E8" transform="translate(193,88)"/>
<path d="M0 0 C2 1 2 1 2 1 Z " fill="#2795E7" transform="translate(196,87)"/>
<path d="M0 0 C2 1 2 1 2 1 Z " fill="#293141" transform="translate(384,86)"/>
<path d="M0 0 C2 1 2 1 2 1 Z " fill="#2896E8" transform="translate(201,85)"/>
<path d="M0 0 C2 1 2 1 2 1 Z " fill="#2896E8" transform="translate(204,84)"/>
<path d="M0 0 C2 1 2 1 2 1 Z " fill="#293141" transform="translate(376,80)"/>
<path d="M0 0 C2 1 2 1 2 1 Z " fill="#283141" transform="translate(373,78)"/>
<path d="M0 0 C2 1 2 1 2 1 Z " fill="#293241" transform="translate(370,76)"/>
<path d="M0 0 C2 1 2 1 2 1 Z " fill="#283140" transform="translate(365,73)"/>
<path d="M0 0 C2 1 2 1 2 1 Z " fill="#283140" transform="translate(363,72)"/>
<path d="M0 0 C2 1 2 1 2 1 Z " fill="#293241" transform="translate(351,66)"/>
<path d="M0 0 C2 1 2 1 2 1 Z " fill="#293141" transform="translate(349,65)"/>
<path d="M0 0 C2 1 2 1 2 1 Z " fill="#293241" transform="translate(347,64)"/>
<path d="M0 0 C2 1 2 1 2 1 Z " fill="#283140" transform="translate(344,63)"/>
<path d="M0 0 C2 1 2 1 2 1 Z " fill="#293141" transform="translate(342,62)"/>
<path d="M0 0 C2 1 2 1 2 1 Z " fill="#293241" transform="translate(339,61)"/>
<path d="M0 0 C2 1 2 1 2 1 Z " fill="#293141" transform="translate(336,60)"/>
<path d="M0 0 C2 1 2 1 2 1 Z " fill="#293241" transform="translate(333,59)"/>
<path d="" fill="#E9E9E9" transform="translate(0,0)"/>
<path d="" fill="#EAEAEA" transform="translate(0,0)"/>
<path d="" fill="#EAEAEA" transform="translate(0,0)"/>
<path d="" fill="#EAEAEA" transform="translate(0,0)"/>
<path d="" fill="#EAEAEA" transform="translate(0,0)"/>
<path d="" fill="#EAEAEA" transform="translate(0,0)"/>
<path d="" fill="#EAEAEA" transform="translate(0,0)"/>
<path d="" fill="#EAEAEA" transform="translate(0,0)"/>
<path d="" fill="#EAEAEA" transform="translate(0,0)"/>
<path d="" fill="#EAEAEA" transform="translate(0,0)"/>
<path d="" fill="#E9E9E9" transform="translate(0,0)"/>
<path d="" fill="#EAEAEA" transform="translate(0,0)"/>
<path d="" fill="#EAEAEA" transform="translate(0,0)"/>
<path d="" fill="#293241" transform="translate(0,0)"/>
<path d="" fill="#293240" transform="translate(0,0)"/>
<path d="" fill="#6CD242" transform="translate(0,0)"/>
<path d="" fill="#293141" transform="translate(0,0)"/>
<path d="" fill="#6CD342" transform="translate(0,0)"/>
<path d="" fill="#293141" transform="translate(0,0)"/>
<path d="" fill="#6CD342" transform="translate(0,0)"/>
<path d="" fill="#293241" transform="translate(0,0)"/>
<path d="" fill="#6BD342" transform="translate(0,0)"/>
<path d="" fill="#293241" transform="translate(0,0)"/>
<path d="" fill="#6CD342" transform="translate(0,0)"/>
<path d="" fill="#293241" transform="translate(0,0)"/>
<path d="" fill="#6CD242" transform="translate(0,0)"/>
<path d="" fill="#293241" transform="translate(0,0)"/>
<path d="" fill="#6CD342" transform="translate(0,0)"/>
<path d="" fill="#293241" transform="translate(0,0)"/>
<path d="" fill="#6CD342" transform="translate(0,0)"/>
<path d="" fill="#283141" transform="translate(0,0)"/>
<path d="" fill="#293241" transform="translate(0,0)"/>
<path d="" fill="#6CD341" transform="translate(0,0)"/>
<path d="" fill="#293241" transform="translate(0,0)"/>
<path d="" fill="#6CD342" transform="translate(0,0)"/>
<path d="" fill="#293241" transform="translate(0,0)"/>
<path d="" fill="#6CD342" transform="translate(0,0)"/>
<path d="" fill="#293241" transform="translate(0,0)"/>
<path d="" fill="#6CD341" transform="translate(0,0)"/>
<path d="" fill="#283241" transform="translate(0,0)"/>
<path d="" fill="#6CD342" transform="translate(0,0)"/>
<path d="" fill="#293241" transform="translate(0,0)"/>
<path d="" fill="#6CD342" transform="translate(0,0)"/>
<path d="" fill="#293241" transform="translate(0,0)"/>
<path d="" fill="#6BD242" transform="translate(0,0)"/>
<path d="" fill="#293241" transform="translate(0,0)"/>
<path d="" fill="#6BD242" transform="translate(0,0)"/>
<path d="" fill="#283241" transform="translate(0,0)"/>
<path d="" fill="#6CD342" transform="translate(0,0)"/>
<path d="" fill="#293241" transform="translate(0,0)"/>
<path d="" fill="#52BC80" transform="translate(0,0)"/>
<path d="" fill="#293141" transform="translate(0,0)"/>
<path d="" fill="#3EA9B2" transform="translate(0,0)"/>
<path d="" fill="#293241" transform="translate(0,0)"/>
<path d="" fill="#379FDB" transform="translate(0,0)"/>
<path d="" fill="#293241" transform="translate(0,0)"/>
<path d="" fill="#379CE8" transform="translate(0,0)"/>
<path d="" fill="#283141" transform="translate(0,0)"/>
<path d="" fill="#293141" transform="translate(0,0)"/>
<path d="" fill="#293140" transform="translate(0,0)"/>
<path d="" fill="#283241" transform="translate(0,0)"/>
<path d="" fill="#293241" transform="translate(0,0)"/>
<path d="" fill="#293241" transform="translate(0,0)"/>
<path d="" fill="#293141" transform="translate(0,0)"/>
<path d="" fill="#293241" transform="translate(0,0)"/>
<path d="" fill="#283141" transform="translate(0,0)"/>
<path d="" fill="#293241" transform="translate(0,0)"/>
<path d="" fill="#293241" transform="translate(0,0)"/>
<path d="" fill="#293141" transform="translate(0,0)"/>
<path d="" fill="#6BD341" transform="translate(0,0)"/>
<path d="" fill="#293241" transform="translate(0,0)"/>
<path d="" fill="#6BD242" transform="translate(0,0)"/>
<path d="" fill="#293241" transform="translate(0,0)"/>
<path d="" fill="#293241" transform="translate(0,0)"/>
<path d="" fill="#293240" transform="translate(0,0)"/>
<path d="" fill="#6CD342" transform="translate(0,0)"/>
<path d="" fill="#283141" transform="translate(0,0)"/>
<path d="" fill="#293241" transform="translate(0,0)"/>
<path d="" fill="#6CD342" transform="translate(0,0)"/>
<path d="" fill="#293241" transform="translate(0,0)"/>
<path d="" fill="#293141" transform="translate(0,0)"/>
<path d="" fill="#6CD342" transform="translate(0,0)"/>
<path d="" fill="#293241" transform="translate(0,0)"/>
<path d="" fill="#293241" transform="translate(0,0)"/>
<path d="" fill="#6BD242" transform="translate(0,0)"/>
<path d="" fill="#293140" transform="translate(0,0)"/>
<path d="" fill="#6BD341" transform="translate(0,0)"/>
<path d="" fill="#293241" transform="translate(0,0)"/>
<path d="" fill="#6BD342" transform="translate(0,0)"/>
<path d="" fill="#293241" transform="translate(0,0)"/>
<path d="" fill="#293241" transform="translate(0,0)"/>
<path d="" fill="#6CD242" transform="translate(0,0)"/>
<path d="" fill="#293141" transform="translate(0,0)"/>
<path d="" fill="#6CD342" transform="translate(0,0)"/>
<path d="" fill="#293241" transform="translate(0,0)"/>
<path d="" fill="#6CD342" transform="translate(0,0)"/>
<path d="" fill="#293241" transform="translate(0,0)"/>
<path d="" fill="#73D13E" transform="translate(0,0)"/>
<path d="" fill="#293241" transform="translate(0,0)"/>
<path d="" fill="#293240" transform="translate(0,0)"/>
<path d="" fill="#9ACA2D" transform="translate(0,0)"/>
<path d="" fill="#293241" transform="translate(0,0)"/>
<path d="" fill="#BAC51F" transform="translate(0,0)"/>
<path d="" fill="#293241" transform="translate(0,0)"/>
<path d="" fill="#293241" transform="translate(0,0)"/>
<path d="" fill="#FEB902" transform="translate(0,0)"/>
<path d="" fill="#283141" transform="translate(0,0)"/>
<path d="" fill="#FFB902" transform="translate(0,0)"/>
<path d="" fill="#293241" transform="translate(0,0)"/>
<path d="" fill="#283141" transform="translate(0,0)"/>
<path d="" fill="#FFB902" transform="translate(0,0)"/>
<path d="" fill="#293241" transform="translate(0,0)"/>
<path d="" fill="#FEB801" transform="translate(0,0)"/>
<path d="" fill="#293140" transform="translate(0,0)"/>
<path d="" fill="#283241" transform="translate(0,0)"/>
<path d="" fill="#FFB902" transform="translate(0,0)"/>
<path d="" fill="#293141" transform="translate(0,0)"/>
<path d="" fill="#FFB902" transform="translate(0,0)"/>
<path d="" fill="#293141" transform="translate(0,0)"/>
<path d="" fill="#293241" transform="translate(0,0)"/>
<path d="" fill="#FFB902" transform="translate(0,0)"/>
<path d="" fill="#293241" transform="translate(0,0)"/>
<path d="" fill="#FFB902" transform="translate(0,0)"/>
<path d="" fill="#293241" transform="translate(0,0)"/>
<path d="" fill="#FFB802" transform="translate(0,0)"/>
<path d="" fill="#293241" transform="translate(0,0)"/>
<path d="" fill="#FFB902" transform="translate(0,0)"/>
<path d="" fill="#FEB802" transform="translate(0,0)"/>
<path d="" fill="#293241" transform="translate(0,0)"/>
<path d="" fill="#FFB902" transform="translate(0,0)"/>
<path d="" fill="#293240" transform="translate(0,0)"/>
<path d="" fill="#293240" transform="translate(0,0)"/>
<path d="" fill="#FEB902" transform="translate(0,0)"/>
<path d="" fill="#F67301" transform="translate(0,0)"/>
<path d="" fill="#293241" transform="translate(0,0)"/>
<path d="" fill="#293241" transform="translate(0,0)"/>
<path d="" fill="#F67302" transform="translate(0,0)"/>
<path d="" fill="#FFB901" transform="translate(0,0)"/>
<path d="" fill="#293241" transform="translate(0,0)"/>
<path d="" fill="#F77302" transform="translate(0,0)"/>
<path d="" fill="#293240" transform="translate(0,0)"/>
<path d="" fill="#F77302" transform="translate(0,0)"/>
<path d="" fill="#293141" transform="translate(0,0)"/>
<path d="" fill="#F77402" transform="translate(0,0)"/>
<path d="" fill="#F77402" transform="translate(0,0)"/>
<path d="" fill="#293141" transform="translate(0,0)"/>
<path d="" fill="#F77402" transform="translate(0,0)"/>
<path d="" fill="#293141" transform="translate(0,0)"/>
<path d="" fill="#F77401" transform="translate(0,0)"/>
<path d="" fill="#F77402" transform="translate(0,0)"/>
<path d="" fill="#F77402" transform="translate(0,0)"/>
<path d="" fill="#283140" transform="translate(0,0)"/>
<path d="" fill="#F77402" transform="translate(0,0)"/>
<path d="" fill="#293241" transform="translate(0,0)"/>
<path d="" fill="#F77402" transform="translate(0,0)"/>
<path d="" fill="#F77302" transform="translate(0,0)"/>
<path d="" fill="#283241" transform="translate(0,0)"/>
<path d="" fill="#F77402" transform="translate(0,0)"/>
<path d="" fill="#F77402" transform="translate(0,0)"/>
<path d="" fill="#293241" transform="translate(0,0)"/>
<path d="" fill="#F77402" transform="translate(0,0)"/>
<path d="" fill="#F77402" transform="translate(0,0)"/>
<path d="" fill="#F67402" transform="translate(0,0)"/>
<path d="" fill="#293241" transform="translate(0,0)"/>
<path d="" fill="#293241" transform="translate(0,0)"/>
<path d="" fill="#293241" transform="translate(0,0)"/>
<path d="" fill="#293241" transform="translate(0,0)"/>
<path d="" fill="#293141" transform="translate(0,0)"/>
<path d="" fill="#283241" transform="translate(0,0)"/>
<path d="" fill="#F77402" transform="translate(0,0)"/>
<path d="" fill="#293241" transform="translate(0,0)"/>
<path d="" fill="#F77402" transform="translate(0,0)"/>
<path d="" fill="#293241" transform="translate(0,0)"/>
<path d="" fill="#293241" transform="translate(0,0)"/>
<path d="" fill="#F67301" transform="translate(0,0)"/>
<path d="" fill="#293240" transform="translate(0,0)"/>
<path d="" fill="#F77402" transform="translate(0,0)"/>
<path d="" fill="#F77402" transform="translate(0,0)"/>
<path d="" fill="#293241" transform="translate(0,0)"/>
<path d="" fill="#F77302" transform="translate(0,0)"/>
<path d="" fill="#293240" transform="translate(0,0)"/>
<path d="" fill="#F77402" transform="translate(0,0)"/>
<path d="" fill="#F77402" transform="translate(0,0)"/>
<path d="" fill="#F77402" transform="translate(0,0)"/>
<path d="" fill="#F77402" transform="translate(0,0)"/>
<path d="" fill="#E9E9E9" transform="translate(0,0)"/>
<path d="" fill="#F77402" transform="translate(0,0)"/>
<path d="" fill="#EAEAEA" transform="translate(0,0)"/>
<path d="" fill="#E9E9E9" transform="translate(0,0)"/>
<path d="" fill="#F77402" transform="translate(0,0)"/>
<path d="" fill="#EAEAEA" transform="translate(0,0)"/>
<path d="" fill="#EAEAEA" transform="translate(0,0)"/>
<path d="" fill="#FFB902" transform="translate(0,0)"/>
<path d="" fill="#293141" transform="translate(0,0)"/>
<path d="" fill="#F67401" transform="translate(0,0)"/>
<path d="" fill="#293241" transform="translate(0,0)"/>
<path d="" fill="#F77401" transform="translate(0,0)"/>
<path d="" fill="#293241" transform="translate(0,0)"/>
<path d="" fill="#F67301" transform="translate(0,0)"/>
<path d="" fill="#293241" transform="translate(0,0)"/>
<path d="" fill="#F77402" transform="translate(0,0)"/>
<path d="" fill="#293241" transform="translate(0,0)"/>
<path d="" fill="#F77402" transform="translate(0,0)"/>
<path d="" fill="#293241" transform="translate(0,0)"/>
<path d="" fill="#F77402" transform="translate(0,0)"/>
<path d="" fill="#293241" transform="translate(0,0)"/>
<path d="" fill="#F77402" transform="translate(0,0)"/>
<path d="" fill="#293241" transform="translate(0,0)"/>
<path d="" fill="#F77302" transform="translate(0,0)"/>
<path d="" fill="#293241" transform="translate(0,0)"/>
<path d="" fill="#F77402" transform="translate(0,0)"/>
<path d="" fill="#293241" transform="translate(0,0)"/>
<path d="" fill="#293241" transform="translate(0,0)"/>
<path d="" fill="#F67402" transform="translate(0,0)"/>
<path d="" fill="#283140" transform="translate(0,0)"/>
<path d="" fill="#F67302" transform="translate(0,0)"/>
<path d="" fill="#293241" transform="translate(0,0)"/>
<path d="" fill="#293241" transform="translate(0,0)"/>
<path d="" fill="#293240" transform="translate(0,0)"/>
<path d="" fill="#F77402" transform="translate(0,0)"/>
<path d="" fill="#293141" transform="translate(0,0)"/>
<path d="" fill="#293241" transform="translate(0,0)"/>
<path d="" fill="#293241" transform="translate(0,0)"/>
<path d="" fill="#293241" transform="translate(0,0)"/>
<path d="" fill="#293241" transform="translate(0,0)"/>
<path d="" fill="#283241" transform="translate(0,0)"/>
<path d="" fill="#283241" transform="translate(0,0)"/>
<path d="" fill="#293241" transform="translate(0,0)"/>
<path d="" fill="#293241" transform="translate(0,0)"/>
<path d="" fill="#293241" transform="translate(0,0)"/>
<path d="" fill="#283141" transform="translate(0,0)"/>
<path d="" fill="#283141" transform="translate(0,0)"/>
<path d="" fill="#293241" transform="translate(0,0)"/>
<path d="" fill="#FF3E36" transform="translate(0,0)"/>
<path d="" fill="#293241" transform="translate(0,0)"/>
<path d="" fill="#2896E8" transform="translate(0,0)"/>
<path d="" fill="#283241" transform="translate(0,0)"/>
<path d="" fill="#FF3E35" transform="translate(0,0)"/>
<path d="" fill="#293241" transform="translate(0,0)"/>
<path d="" fill="#2896E8" transform="translate(0,0)"/>
<path d="" fill="#293241" transform="translate(0,0)"/>
<path d="" fill="#293241" transform="translate(0,0)"/>
<path d="" fill="#FF3F36" transform="translate(0,0)"/>
<path d="" fill="#2896E8" transform="translate(0,0)"/>
<path d="" fill="#283240" transform="translate(0,0)"/>
<path d="" fill="#283141" transform="translate(0,0)"/>
<path d="" fill="#FF3F36" transform="translate(0,0)"/>
<path d="" fill="#293241" transform="translate(0,0)"/>
<path d="" fill="#2896E8" transform="translate(0,0)"/>
<path d="" fill="#293241" transform="translate(0,0)"/>
<path d="" fill="#293140" transform="translate(0,0)"/>
<path d="" fill="#2896E8" transform="translate(0,0)"/>
<path d="" fill="#FF3E35" transform="translate(0,0)"/>
<path d="" fill="#2895E7" transform="translate(0,0)"/>
<path d="" fill="#293141" transform="translate(0,0)"/>
<path d="" fill="#FF3F36" transform="translate(0,0)"/>
<path d="" fill="#293241" transform="translate(0,0)"/>
<path d="" fill="#2896E8" transform="translate(0,0)"/>
<path d="" fill="#FF3F36" transform="translate(0,0)"/>
<path d="" fill="#293241" transform="translate(0,0)"/>
<path d="" fill="#FF3F36" transform="translate(0,0)"/>
<path d="" fill="#293241" transform="translate(0,0)"/>
<path d="" fill="#FE3F35" transform="translate(0,0)"/>
<path d="" fill="#2896E8" transform="translate(0,0)"/>
<path d="" fill="#FF3E35" transform="translate(0,0)"/>
<path d="" fill="#2896E8" transform="translate(0,0)"/>
<path d="" fill="#FE3E35" transform="translate(0,0)"/>
<path d="" fill="#2895E7" transform="translate(0,0)"/>
<path d="" fill="#293241" transform="translate(0,0)"/>
<path d="" fill="#FF3F36" transform="translate(0,0)"/>
<path d="" fill="#FF3F36" transform="translate(0,0)"/>
<path d="" fill="#2896E8" transform="translate(0,0)"/>
<path d="" fill="#293241" transform="translate(0,0)"/>
<path d="" fill="#FF3F35" transform="translate(0,0)"/>
<path d="" fill="#2896E8" transform="translate(0,0)"/>
<path d="" fill="#FF3F36" transform="translate(0,0)"/>
<path d="" fill="#2896E8" transform="translate(0,0)"/>
<path d="" fill="#293140" transform="translate(0,0)"/>
<path d="" fill="#FE3F36" transform="translate(0,0)"/>
<path d="" fill="#2896E8" transform="translate(0,0)"/>
<path d="" fill="#FF3F36" transform="translate(0,0)"/>
<path d="" fill="#FF3F36" transform="translate(0,0)"/>
<path d="" fill="#293241" transform="translate(0,0)"/>
<path d="" fill="#FF3E36" transform="translate(0,0)"/>
<path d="" fill="#2896E7" transform="translate(0,0)"/>
<path d="" fill="#FE3E35" transform="translate(0,0)"/>
<path d="" fill="#2896E8" transform="translate(0,0)"/>
<path d="" fill="#283240" transform="translate(0,0)"/>
<path d="" fill="#FF3E35" transform="translate(0,0)"/>
<path d="" fill="#2896E8" transform="translate(0,0)"/>
<path d="" fill="#2796E8" transform="translate(0,0)"/>
<path d="" fill="#FF3F36" transform="translate(0,0)"/>
<path d="" fill="#2896E7" transform="translate(0,0)"/>
<path d="" fill="#293241" transform="translate(0,0)"/>
<path d="" fill="#FF3E35" transform="translate(0,0)"/>
<path d="" fill="#2896E8" transform="translate(0,0)"/>
<path d="" fill="#FF3F36" transform="translate(0,0)"/>
<path d="" fill="#2896E8" transform="translate(0,0)"/>
<path d="" fill="#FF3E36" transform="translate(0,0)"/>
<path d="" fill="#2896E7" transform="translate(0,0)"/>
<path d="" fill="#293241" transform="translate(0,0)"/>
<path d="" fill="#FF3F36" transform="translate(0,0)"/>
<path d="" fill="#2896E8" transform="translate(0,0)"/>
<path d="" fill="#2896E8" transform="translate(0,0)"/>
<path d="" fill="#FF3E36" transform="translate(0,0)"/>
<path d="" fill="#2896E8" transform="translate(0,0)"/>
<path d="" fill="#293241" transform="translate(0,0)"/>
<path d="" fill="#FE3E35" transform="translate(0,0)"/>
<path d="" fill="#2896E8" transform="translate(0,0)"/>
<path d="" fill="#2896E8" transform="translate(0,0)"/>
<path d="" fill="#FF3F36" transform="translate(0,0)"/>
<path d="" fill="#2896E8" transform="translate(0,0)"/>
<path d="" fill="#283140" transform="translate(0,0)"/>
<path d="" fill="#FF3F36" transform="translate(0,0)"/>
<path d="" fill="#2795E7" transform="translate(0,0)"/>
<path d="" fill="#293241" transform="translate(0,0)"/>
<path d="" fill="#FF3F36" transform="translate(0,0)"/>
<path d="" fill="#2895E8" transform="translate(0,0)"/>
<path d="" fill="#293241" transform="translate(0,0)"/>
<path d="" fill="#FF3F36" transform="translate(0,0)"/>
<path d="" fill="#2896E8" transform="translate(0,0)"/>
<path d="" fill="#2896E8" transform="translate(0,0)"/>
<path d="" fill="#293241" transform="translate(0,0)"/>
<path d="" fill="#2896E8" transform="translate(0,0)"/>
<path d="" fill="#293241" transform="translate(0,0)"/>
<path d="" fill="#2896E8" transform="translate(0,0)"/>
<path d="" fill="#293241" transform="translate(0,0)"/>
<path d="" fill="#293241" transform="translate(0,0)"/>
<path d="" fill="#2895E8" transform="translate(0,0)"/>
<path d="" fill="#2896E8" transform="translate(0,0)"/>
<path d="" fill="#2795E7" transform="translate(0,0)"/>
<path d="" fill="#293141" transform="translate(0,0)"/>
<path d="" fill="#2896E8" transform="translate(0,0)"/>
<path d="" fill="#293141" transform="translate(0,0)"/>
<path d="" fill="#2896E8" transform="translate(0,0)"/>
<path d="" fill="#293241" transform="translate(0,0)"/>
<path d="" fill="#293241" transform="translate(0,0)"/>
<path d="" fill="#2896E8" transform="translate(0,0)"/>
<path d="" fill="#293140" transform="translate(0,0)"/>
<path d="" fill="#FF4034" transform="translate(0,0)"/>
<path d="" fill="#283241" transform="translate(0,0)"/>
<path d="" fill="#2796E8" transform="translate(0,0)"/>
<path d="" fill="#293140" transform="translate(0,0)"/>
<path d="" fill="#293241" transform="translate(0,0)"/>
<path d="" fill="#2896E7" transform="translate(0,0)"/>
<path d="" fill="#293141" transform="translate(0,0)"/>
<path d="" fill="#2896E8" transform="translate(0,0)"/>
<path d="" fill="#293241" transform="translate(0,0)"/>
<path d="" fill="#293241" transform="translate(0,0)"/>
<path d="" fill="#2896E8" transform="translate(0,0)"/>
<path d="" fill="#293241" transform="translate(0,0)"/>
<path d="" fill="#2896E8" transform="translate(0,0)"/>
<path d="" fill="#293241" transform="translate(0,0)"/>
<path d="" fill="#2795E8" transform="translate(0,0)"/>
<path d="" fill="#293241" transform="translate(0,0)"/>
<path d="" fill="#293241" transform="translate(0,0)"/>
<path d="" fill="#293241" transform="translate(0,0)"/>
<path d="" fill="#293241" transform="translate(0,0)"/>
<path d="" fill="#2896E8" transform="translate(0,0)"/>
<path d="" fill="#293241" transform="translate(0,0)"/>
<path d="" fill="#293240" transform="translate(0,0)"/>
<path d="" fill="#293241" transform="translate(0,0)"/>
<path d="" fill="#293241" transform="translate(0,0)"/>
<path d="" fill="#293241" transform="translate(0,0)"/>
<path d="" fill="#293241" transform="translate(0,0)"/>
<path d="" fill="#293141" transform="translate(0,0)"/>
<path d="" fill="#293241" transform="translate(0,0)"/>
<path d="" fill="#283140" transform="translate(0,0)"/>
<path d="" fill="#293241" transform="translate(0,0)"/>
<path d="" fill="#293241" transform="translate(0,0)"/>
<path d="" fill="#283241" transform="translate(0,0)"/>
<path d="" fill="#293241" transform="translate(0,0)"/>
<path d="" fill="#293241" transform="translate(0,0)"/>
<path d="" fill="#293241" transform="translate(0,0)"/>
<path d="" fill="#293241" transform="translate(0,0)"/>
<path d="" fill="#293241" transform="translate(0,0)"/>
<path d="" fill="#FF3F36" transform="translate(0,0)"/>
</svg>
